<?xml version="1.0" encoding="utf-8"?>
<!-- Generator: Adobe Illustrator 27.8.1, SVG Export Plug-In . SVG Version: 6.00 Build 0)  -->
<svg version="1.1" xmlns="http://www.w3.org/2000/svg" xmlns:xlink="http://www.w3.org/1999/xlink" x="0px" y="0px"
	 viewBox="0 0 2500 1700" style="enable-background:new 0 0 2500 1700;" xml:space="preserve">
<style type="text/css">
	.st0{fill:#FFFFFF;}
	.st1{fill:#FFE7E3;}
	.st2{fill:#002B57;}
	.st3{fill:#F7F7F7;}
	.st4{fill:#003366;}
	.st5{fill:#2B2D45;}
	.st6{fill:#557799;}
	.st7{fill:#F5B09F;}
	.st8{fill:#F59B84;}
	.st9{fill:#F0CC7B;}
	.st10{fill:#2E66B3;}
	.st11{fill:#FFCC33;}
	.st12{fill:#FF6E57;}
	.st13{fill:#AABBCC;}
	.st14{fill:#1A1A1A;}
	.st15{fill:#FF5F5B;}
	.st16{fill:#FFE0C4;}
	.st17{fill:#6093D9;}
	.st18{fill:none;}
	.st19{fill:#2B5580;}
	.st20{fill:#FF8673;}
	.st21{fill:#8099B3;}
	.st22{fill:#C2C7D6;}
	.st23{fill:#FF97A2;}
	.st24{fill:#FF707F;}
</style>
<g id="bg">
	<rect class="st0" width="2500" height="1700"/>
</g>
<g id="Layer_1">
	<g>
		<path class="st1" d="M2241.22168,685.244812c-59.45874-138.127808-161.659912-148.046387-306.472534-157.306091
			c-77.009888-58.651031-73.046997-157.712708-142.073242-204.025909c-56.205078-37.711914-127.769653-17.161621-197.12207-9.064026
			c-26.732422-41.853973-55.361328-81.798782-95.40625-109.926682c-89.905273-63.150406-214.522461-49.120605-314.750977-3.700699
			c-58.433594-10.252899-118.466797-10.376007-176.308594,2.339798
			c-194.745361,42.813004-246.294006,187.017807-276.77832,247.167496
			c-244.294495,94.637695-470.544891,176.172485-511.075195,488.979004
			c-30.115295,124.605896-42.274399,259.021912,9.234299,377.097229c4.064499,34.918457,10.076691,69.629395,24.215897,101.641113
			c18.292908,41.41748,52.819305,78.310059,97.159088,87.472656c64.403107,0.076538,47.23172,1.807861,78.530304-6.670044
			c48.689697,11.327148-15.348907,6.802246,756.252869,7.591309c999.816406,1.02063,976.361816,3.459473,976.462158,3.394653
			c108.783936-70.38916,163.533203-203.8125,171.031006-333.166504
			C2341.631104,1047.487671,2283.864014,742.25592,2241.22168,685.244812z"/>
		<g>
			<path class="st2" d="M1579.813843,275.370697h-84.909546h-417.18811H992.80719
				c-14.957092,0-27.082642,12.125-27.082642,27.082611v800.729797c0,14.957642,12.125549,27.082642,27.082642,27.082642h587.006653
				c14.956665,0,27.08252-12.125,27.08252-27.082642V302.453308
				C1606.896362,287.495697,1594.770508,275.370697,1579.813843,275.370697z"/>
			<rect x="1004.181824" y="313.828094" class="st3" width="564.257507" height="777.980286"/>
			<path class="st4" d="M1367.765259,250.105194c-5.162109-40.602493-39.449097-72.1091-81.454712-72.1091
				c-42.005737,0-76.292725,31.506607-81.45459,72.1091h-56.263672c-16.862305,0-30.53186,13.669617-30.53186,30.531891v41.575317
				h336.500244v-41.575317c0-16.862274-13.669678-30.531891-30.531982-30.531891H1367.765259z"/>
			
				<ellipse transform="matrix(0.160182 -0.987087 0.987087 0.160182 850.692566 1465.022949)" class="st3" cx="1286.310547" cy="232.576782" rx="22.330523" ry="22.330603"/>
			<g>
				<g>
					<g>
						<g>
							<path class="st5" d="M1125.304199,584.893311c-1.192383,0-2.325195-0.521484-3.099609-1.427795l-31.730469-37.100525
								c-1.464844-1.711975-1.263672-4.28717,0.448242-5.750977c1.710938-1.464905,4.287109-1.263733,5.750977,0.448181
								l28.630859,33.476624l45.553711-53.262695c1.462891-1.711914,4.038086-1.913147,5.750977-0.448303
								c1.711914,1.463867,1.913086,4.039062,0.448242,5.750977l-48.65332,56.886719
								C1127.629395,584.371826,1126.496582,584.893311,1125.304199,584.893311z"/>
						</g>
						<g>
							<g>
								<path class="st6" d="M1479.047363,546.362H1238.79248c-2.25293,0-4.079102-1.826111-4.079102-4.079102
									c0-2.252869,1.826172-4.079102,4.079102-4.079102h240.254883c2.25293,0,4.079102,1.826233,4.079102,4.079102
									C1483.126465,544.535889,1481.300293,546.362,1479.047363,546.362z"/>
							</g>
							<g>
								<path class="st6" d="M1348.946777,584.893311H1238.79248c-2.25293,0-4.079102-1.826233-4.079102-4.079102
									c0-2.252991,1.826172-4.079102,4.079102-4.079102h110.154297c2.25293,0,4.079102,1.826111,4.079102,4.079102
									C1353.025879,583.067078,1351.199707,584.893311,1348.946777,584.893311z"/>
							</g>
						</g>
					</g>
					<g>
						<g>
							<path class="st6" d="M1125.304199,714.377625c-1.192383,0-2.325195-0.521423-3.099609-1.427734l-31.730469-37.100586
								c-1.464844-1.711914-1.263672-4.287109,0.448242-5.750916c1.710938-1.464905,4.287109-1.264709,5.750977,0.448181
								l28.630859,33.476624l45.553711-53.263672c1.462891-1.711914,4.038086-1.914124,5.750977-0.448303
								c1.711914,1.463867,1.913086,4.039062,0.448242,5.750977l-48.65332,56.887695
								C1127.629395,713.856201,1126.496582,714.377625,1125.304199,714.377625z"/>
						</g>
						<g>
							<g>
								<path class="st6" d="M1483.126465,671.767273c0,2.252808-1.826294,4.079102-4.079102,4.079102H1238.79248
									c-2.252808,0-4.079102-1.826294-4.079102-4.079102c0-2.252747,1.826294-4.079102,4.079102-4.079102h240.254883
									C1481.300171,667.688171,1483.126465,669.514526,1483.126465,671.767273z"/>
							</g>
							<g>
								<path class="st6" d="M1353.025879,710.298523c0,2.252869-1.826294,4.079102-4.079102,4.079102H1238.79248
									c-2.252808,0-4.079102-1.826233-4.079102-4.079102c0-2.252808,1.826294-4.079102,4.079102-4.079102h110.154297
									C1351.199585,706.219421,1353.025879,708.045715,1353.025879,710.298523z"/>
							</g>
						</g>
					</g>
					<g>
						<g>
							<path class="st6" d="M1125.304199,843.862c-1.192383,0-2.325195-0.521484-3.099609-1.427673l-31.730469-37.100647
								c-1.464844-1.711853-1.263672-4.287109,0.448242-5.750977c1.710938-1.46582,4.287109-1.263611,5.750977,0.448303
								l28.630859,33.476501l45.553711-53.263611c1.462891-1.712891,4.038086-1.913086,5.750977-0.448303
								c1.711914,1.463928,1.913086,4.039124,0.448242,5.750977l-48.65332,56.887756
								C1127.629395,843.340515,1126.496582,843.862,1125.304199,843.862z"/>
						</g>
						<g>
							<g>
								<path class="st6" d="M1479.047363,805.330811H1238.79248c-2.25293,0-4.079102-1.826233-4.079102-4.079102
									c0-2.252991,1.826172-4.079102,4.079102-4.079102h240.254883c2.25293,0,4.079102,1.826111,4.079102,4.079102
									C1483.126465,803.504578,1481.300293,805.330811,1479.047363,805.330811z"/>
							</g>
							<g>
								<path class="st6" d="M1348.946777,843.862H1238.79248c-2.25293,0-4.079102-1.826111-4.079102-4.079102
									c0-2.252869,1.826172-4.079102,4.079102-4.079102h110.154297c2.25293,0,4.079102,1.826233,4.079102,4.079102
									C1353.025879,842.035889,1351.199707,843.862,1348.946777,843.862z"/>
							</g>
						</g>
					</g>
					<g>
						<g>
							<path class="st5" d="M1125.304199,973.345398c-1.192383,0-2.325195-0.521484-3.099609-1.427673l-31.730469-37.099609
								c-1.464844-1.711914-1.263672-4.287109,0.448242-5.751038c1.710938-1.464783,4.287109-1.263672,5.750977,0.448242
								l28.630859,33.475586l45.553711-53.262695c1.462891-1.711914,4.038086-1.913086,5.750977-0.448181
								c1.711914,1.463867,1.913086,4.039062,0.448242,5.750977l-48.65332,56.886719
								C1127.629395,972.823914,1126.496582,973.345398,1125.304199,973.345398z"/>
						</g>
						<g>
							<g>
								<path class="st6" d="M1479.047363,934.815125H1238.79248c-2.25293,0-4.079102-1.826111-4.079102-4.079102
									c0-2.25293,1.826172-4.079102,4.079102-4.079102h240.254883c2.25293,0,4.079102,1.826172,4.079102,4.079102
									C1483.126465,932.989014,1481.300293,934.815125,1479.047363,934.815125z"/>
							</g>
							<g>
								<path class="st6" d="M1348.946777,973.345398H1238.79248c-2.25293,0-4.079102-1.826172-4.079102-4.079102
									c0-2.252869,1.826172-4.079102,4.079102-4.079102h110.154297c2.25293,0,4.079102,1.826233,4.079102,4.079102
									C1353.025879,971.519226,1351.199707,973.345398,1348.946777,973.345398z"/>
							</g>
						</g>
					</g>
				</g>
			</g>
			<g>
				<path class="st5" d="M1089.600586,419.137207l9.739258,3.088898c-1.493164,5.429688-3.976562,9.462891-7.449219,12.097595
					c-3.472656,2.635803-7.878906,3.954102-13.217773,3.954102c-6.606445,0-12.036133-2.256805-16.289062-6.770508
					c-4.253906-4.51358-6.379883-10.683594-6.379883-18.511688c0-8.280304,2.137695-14.711914,6.414062-19.292999
					c4.275391-4.580994,9.897461-6.872009,16.866211-6.872009c6.084961,0,11.029297,1.798798,14.830078,5.395508
					c2.261719,2.126892,3.958008,5.18161,5.089844,9.163086l-9.943359,2.375916
					c-0.587891-2.580017-1.81543-4.616211-3.681641-6.109314c-1.866211-1.493195-4.134766-2.239288-6.804688-2.239288
					c-3.6875,0-6.679688,1.323181-8.975586,3.970703c-2.296875,2.646484-3.444336,6.934601-3.444336,12.861298
					c0,6.2901,1.130859,10.769592,3.393555,13.438507c2.261719,2.669891,5.203125,4.004883,8.823242,4.004883
					c2.668945,0,4.96582-0.848602,6.888672-2.544891C1087.382812,425.449707,1088.762695,422.780792,1089.600586,419.137207z"/>
				<path class="st5" d="M1105.923828,412.859894c0-5.06839,0.757812-9.321289,2.273438-12.760803
					c1.130859-2.533203,2.674805-4.80658,4.632812-6.820282c1.956055-2.013702,4.099609-3.506805,6.430664-4.479523
					c3.098633-1.3125,6.673828-1.968689,10.723633-1.968689c7.330078,0,13.195312,2.273407,17.595703,6.821289
					c4.400391,4.546814,6.600586,10.871002,6.600586,18.969727c0,8.032196-2.183594,14.316376-6.549805,18.851501
					c-4.366211,4.536194-10.203125,6.804688-17.510742,6.804688c-7.398438,0-13.280273-2.256805-17.646484-6.770508
					C1108.106445,426.993713,1105.923828,420.777802,1105.923828,412.859894z M1116.274414,412.519989
					c0,5.63382,1.300781,9.904297,3.902344,12.810608c2.601562,2.908203,5.905273,4.361298,9.90918,4.361298
					c4.004883,0,7.291016-1.442383,9.858398-4.327209c2.567383-2.884674,3.851562-7.210876,3.851562-12.980377
					c0-5.701202-1.25-9.954102-3.75-12.759796c-2.5-2.804718-5.819336-4.208008-9.959961-4.208008
					c-4.139648,0-7.477539,1.419891-10.010742,4.258789C1117.541016,402.515106,1116.274414,406.796387,1116.274414,412.519989z"/>
				<path class="st5" d="M1161.884766,437.429199v-49.75h15.033203l9.027344,33.935486l8.924805-33.935486h15.068359v49.75
					h-9.333008V398.26709l-9.875,39.162109h-9.671875l-9.841797-39.162109v39.162109H1161.884766z"/>
				<path class="st5" d="M1219.915039,437.429199v-49.75h16.119141c6.108398,0,10.09082,0.248993,11.945312,0.746094
					c2.851562,0.747101,5.237305,2.370117,7.161133,4.870117c1.922852,2.5,2.884766,5.729492,2.884766,9.688477
					c0,3.054718-0.554688,5.622101-1.663086,7.704102c-1.109375,2.081024-2.517578,3.71582-4.225586,4.90332
					s-3.444336,1.974579-5.208984,2.358398c-2.398438,0.475586-5.871094,0.712891-10.417969,0.712891h-6.549805v18.766602
					H1219.915039z M1229.959961,396.095215v14.117188h5.498047c3.958008,0,6.605469-0.259796,7.94043-0.780304
					s2.380859-1.3349,3.139648-2.443298c0.757812-1.108398,1.136719-2.398499,1.136719-3.869202
					c0-1.809509-0.532227-3.302704-1.595703-4.479492c-1.063477-1.17572-2.40918-1.911102-4.038086-2.205994
					c-1.199219-0.225616-3.608398-0.338898-7.228516-0.338898H1229.959961z"/>
				<path class="st5" d="M1266.542969,437.429199v-49.342804h10.044922v40.960999h24.976562v8.381805H1266.542969z"/>
				<path class="st5" d="M1308.419922,437.429199v-49.75h10.044922v49.75H1308.419922z"/>
				<path class="st5" d="M1372.898438,437.429199h-10.927734l-4.34375-11.300812h-19.886719l-4.105469,11.300812h-10.65625
					l19.37793-49.75h10.621094L1372.898438,437.429199z M1354.40332,417.746613l-6.855469-18.461914l-6.71875,18.461914H1354.40332z
					"/>
				<path class="st5" d="M1378.328125,437.429199v-49.75h9.773438l20.362305,33.223602v-33.223602h9.332031v49.75h-10.079102
					l-20.056641-32.442413v32.442413H1378.328125z"/>
				<path class="st5" d="M1460.25,419.137207l9.739258,3.088898c-1.493164,5.429688-3.976562,9.462891-7.449219,12.097595
					c-3.472656,2.635803-7.878906,3.954102-13.217773,3.954102c-6.606445,0-12.036133-2.256805-16.289062-6.770508
					c-4.253906-4.51358-6.379883-10.683594-6.379883-18.511688c0-8.280304,2.137695-14.711914,6.414062-19.292999
					c4.275391-4.580994,9.897461-6.872009,16.866211-6.872009c6.084961,0,11.029297,1.798798,14.830078,5.395508
					c2.261719,2.126892,3.958008,5.18161,5.089844,9.163086l-9.943359,2.375916
					c-0.587891-2.580017-1.81543-4.616211-3.681641-6.109314c-1.866211-1.493195-4.134766-2.239288-6.804688-2.239288
					c-3.6875,0-6.679688,1.323181-8.975586,3.970703c-2.296875,2.646484-3.444336,6.934601-3.444336,12.861298
					c0,6.2901,1.130859,10.769592,3.393555,13.438507c2.261719,2.669891,5.203125,4.004883,8.823242,4.004883
					c2.668945,0,4.96582-0.848602,6.888672-2.544891C1458.032227,425.449707,1459.412109,422.780792,1460.25,419.137207z"/>
				<path class="st5" d="M1478.609375,437.429199v-49.75h36.888672v8.416016h-26.84375v11.029297h24.976562v8.381775h-24.976562
					v13.541107h27.793945v8.381805H1478.609375z"/>
			</g>
		</g>
		<g>
			<g>
				<g>
					<g>
						<path class="st7" d="M395.412476,1474.499756c-7.627686,0.896851-15.313477,1.158569-22.974976,0.782349
							c0.727783-15.567261-1.666016-25.902954-0.938324-41.470215c7.913208,1.671021,16.765411,6.379639,24.5737,8.140991
							C396.20929,1456.052368,395.598083,1460.274658,395.412476,1474.499756z"/>
					</g>
				</g>
				<g>
					<g>
						<polygon class="st3" points="396.09259,1462.079224 371.87738,1462.349609 372.321777,1474.161255 395.771393,1475.448608 
													"/>
					</g>
				</g>
				<g>
					<g>
						<path class="st5" d="M369.759705,1490.087158c4.151672,0.771362,48.615692,0.759399,60.824799,0.533691
							c0.955505-0.0177,4.113373,0.211548,4.143585-4.043213c0.027802-3.919678-8.043213-7.592163-11.989594-9.252808
							c-12.494202-5.257812-24.682404-9.728149-26.0625-9.66748c-2.09259,0.091919-6.934814,5.044312-14.511292,4.908691
							c-4.71051-0.084473-7.451904-2.343384-10.369019-1.613037
							C369.309296,1471.575562,368.295593,1488.876709,369.759705,1490.087158z"/>
					</g>
				</g>
			</g>
			<g>
				<g>
					<g>
						<path class="st7" d="M260.813385,1474.499756c7.627625,0.896851,15.313507,1.158569,22.974915,0.782349
							c-0.727692-15.567261,5.370392-25.902954,4.642578-41.470215c-7.913086,1.671021-16.765381,6.379639-24.573669,8.140991
							C263.720886,1456.052368,260.627808,1460.274658,260.813385,1474.499756z"/>
					</g>
				</g>
				<g>
					<g>
						<polygon class="st3" points="261.294281,1461.80896 285.509399,1462.079224 283.903992,1474.161255 259.711304,1475.119873 
													"/>
					</g>
				</g>
				<g>
					<g>
						<path class="st5" d="M286.466095,1490.087158c-4.151611,0.771362-48.615601,0.759399-60.824799,0.533691
							c-0.955399-0.0177-4.113403,0.211548-4.1436-4.043213c-0.027695-3.919678,8.043304-7.592163,11.9897-9.252808
							c12.494095-5.257812,24.682312-9.728149,26.062408-9.66748c2.092682,0.091919,6.934875,5.044312,14.511292,4.908691
							c4.71051-0.084473,7.451996-2.343384,10.368988-1.613037
							C286.916504,1471.575562,287.930298,1488.876709,286.466095,1490.087158z"/>
					</g>
				</g>
			</g>
			<g>
				<g>
					<path class="st5" d="M361.804688,1454.772705c0.419312,0.367554,0.966003,0.627441,1.685791,0.73584
						c3.095398,0.465698,6.209412,0.842896,9.327515,1.145996c11.03479,1.072388,22.060486,0.818237,33.054596-0.52478
						c1.609009-0.196533,3.215424-0.411621,4.819489-0.640503c9.12262-40.252808,5.689697-343.803101,3.325012-390.13269
						c-14.0065-6.136719-50.751892-23.280762-65.498688-7.64624c0,5.881104,0.138092,11.763672,0.247284,17.643677
						c0.203613,10.963623,0.442108,21.926636,0.689117,32.889282c0.332489,14.754395,0.686188,29.508301,1.052277,44.261963
						c0.428101,17.25415,0.874207,34.507935,1.336304,51.761353c0.494507,18.463135,1.007294,36.925781,1.541504,55.387939
						c0.531891,18.381104,1.084717,36.761719,1.667908,55.141602c0.277802,8.756104,0.562592,17.512207,0.856598,26.267944
						c0.140991,4.198853,0.284088,8.397827,0.429688,12.596558c0.138519,3.996094-0.112793,8.235962,0.669708,12.159302
						c0.705505,3.537231-0.022491,7.380981-0.219604,10.984009c-0.227509,4.156738-0.397705,8.317139-0.439606,12.479492
						c-0.083282,8.292725,0.3396,16.612549,1.811218,24.799683c1.147095,6.382324,2.932281,12.72522,2.868805,19.19751
						c-0.053802,5.490845-1.417206,10.973267-0.802704,16.468994
						C360.434204,1451.603149,360.548004,1453.671143,361.804688,1454.772705z"/>
				</g>
			</g>
			<g>
				<g>
					<path class="st5" d="M298.941101,1455.187744c-16.563416,2.571533-32.66272,2.519409-49.25531,0.323486
						c0.045212-1.974609,0.1698-11.743774,0.156296-14.783813c-0.026199-5.921875,0.851303-11.819824,2.06131-17.620361
						c2.01329-9.650513,4.940903-19.147461,6.195206-28.910645c1.427795-11.113892,0.663788-22.400146,2.106995-33.512207
						c1.518311-11.689941,5.436401-22.947754,7.387207-34.564575c0.924194-5.503662,0.68219-10.971558,1.369904-16.437866
						c0.669189-5.319702,1.335388-10.639893,2.000183-15.960205c4.028412-32.239746,7.991211-64.486816,11.875916-96.742188
						c3.259491-27.063721,6.479095-54.132324,9.537079-81.217041c1.657501-14.680176,3.613922-29.40332,4.543701-44.145874
						c14.0065-6.136597,56.100891-21.709351,70.847809-6.074829
						C367.767395,1094.53186,308.631012,1448.403442,298.941101,1455.187744z"/>
				</g>
			</g>
			<g>
				<g>
					<path class="st7" d="M342.397888,854.593018c1.953125,6.293457-4.178802,40.369873-4.178802,40.369873
						s29.212494,1.403931,32.91922,0.660706c3.706696-0.743286-1.853424-21.058289,0-32.45459
						C372.991577,851.772705,342.397888,854.593018,342.397888,854.593018z"/>
				</g>
			</g>
			<g>
				<g>
					<path class="st8" d="M370.873291,872.8526c0,0,0.440796,4.075684,0.621399,7.323608
						c-11.110809-3.186096-18.927612-10.563293-25.408112-19.052307C356.828491,868.344727,370.873291,872.8526,370.873291,872.8526
						z"/>
				</g>
			</g>
			<g>
				<g>
					<path class="st7" d="M331.038086,829.991882c0,23.700195,24.054413,42.913025,41.423401,42.913025
						c17.369019,0,21.475189-19.21283,21.475189-42.913025s-14.080292-42.912964-31.44928-42.912964
						C345.118378,787.078918,331.038086,806.291687,331.038086,829.991882z"/>
				</g>
			</g>
			<g>
				<g>
					<path class="st5" d="M400.721191,813.79718c-0.798615,7.54541-12.674011,3.254089-22.265198,0.171326
						c-9.591217-3.082886-18.497314-5.823303-19.524902-3.425476c-1.027588,2.397766-6.122986,10.575989-6.122986,13.658875
						s-7.050323,9.342285-8.349426,15.029114c-1.55249,6.795959,0.813507,18.41156-2.954498,17.726501
						c-3.767883-0.68512-14.766479-22.415527-14.772095-36.223816c-0.009186-22.607788,16.570496-39.820618,28.902008-35.581604
						c4.110504-6.551086,16.185089-8.349487,32.241791,3.339783C394.251404,793.133179,401.962891,802.065125,400.721191,813.79718z
						"/>
				</g>
			</g>
			<g>
				<g>
					<ellipse class="st7" cx="349.018768" cy="830.688782" rx="6.615325" ry="9.9551"/>
				</g>
			</g>
			<g>
				<g>
					<path class="st9" d="M303.341095,891.959473c2.968597-3.146057,6.762207-4.265259,10.433685-5.151062
						c5.188507-1.252136,20.610504-2.310486,25.914124-1.668335c0.882996,3.945923,9.103699,8.38501,16.294373,8.549438
						c7.147827,0.163391,15.20752-2.990784,16.44632-6.322388c4.591583-0.522522,18.561401,1.321472,23.045593,2.458679
						c3.937103,0.998474,17.255402,5.269409,17.704193,6.098389c7.29361,13.473389,11.537811,160.839111,5.726105,191.374146
						c-3.066986,16.11438-119.992706,24.195923-125.290405,0.349976
						C288.317383,1063.802246,297.5271,898.119629,303.341095,891.959473z"/>
				</g>
			</g>
			<g>
				<g>
					<g>
						<path class="st7" d="M574.630066,1063.354858c-8.772888-6.174561-29.71991-16.513306-38.586487-20.853638
							c-2.817322-1.379028-10.869507-6.509766-11.530579-6.153198c-4.356995,2.349609-11.097534,19.546631-7.95929,20.056763
							c1.039673,0.169067,7.784851,3.699707,8.312988,4.209106c7.080811,6.829224,14.640503,14.919434,29.762329,16.913452
							C566.553711,1079.099854,581.581787,1068.247559,574.630066,1063.354858z"/>
					</g>
				</g>
				<g>
					<g>
						<path class="st7" d="M533.84198,1041.306396c-3.709167-1.255859,4.497009,11.297363,8.227112,11.407593
							c3.72998,0.110107,12.521973-1.826416,16.595093-2.680542c2.984131-0.62561,4.669922-5.86853-0.221069-6.296997
							C553.552063,1043.308105,540.00946,1043.394653,533.84198,1041.306396z"/>
					</g>
				</g>
			</g>
			<g>
				<g>
					<g>
						<path class="st9" d="M418.33139,898.398071c17.560699,13.005737,42.049988,82.742432,53.636597,98.048706
							c6.866211,9.070496,66.904205,37.426025,69.415009,42.383057c2.510803,4.956909-7.433289,27.534424-15.467834,29.517212
							s-83.085358-32.836426-99.549286-65.357544c-5.860382-11.576111-47.63208-88.961304-48.207184-100.130188
							C377.630585,892.604309,388.531097,881.687195,418.33139,898.398071z"/>
					</g>
				</g>
			</g>
			<g>
				<g>
					<g>
						<path class="st7" d="M165.960693,1108.050537c5.836197-9.001587,21.413895-26.408569,28.021301-33.743286
							c2.099396-2.330444,7.656296-10.094604,8.402603-10.010498c4.919098,0.554565,17.588501,13.995605,14.867096,15.639648
							c-0.901596,0.544556-5.842606,6.33667-6.142593,7.006348c-4.021912,8.977783-8.017807,19.304077-21.304001,26.79541
							C179.327789,1119.645752,161.336197,1115.18335,165.960693,1108.050537z"/>
					</g>
				</g>
				<g>
					<g>
						<path class="st7" d="M195.578888,1072.377441c2.9729-2.549072,0.042313,12.159424-3.377396,13.653198
							c-3.419693,1.493652-12.2995,2.976929-16.397095,3.704102c-3.002106,0.532715-6.522095-3.702881-2.143997-5.925049
							C178.038498,1081.587646,190.63559,1076.615845,195.578888,1072.377441z"/>
					</g>
				</g>
			</g>
			<g>
				<g>
					<g>
						<path class="st9" d="M293.965302,895.018494c-17.560822,13.005676-42.181305,80.674194-51.596802,97.403809
							c-9.415497,16.729675-44.817612,67.166443-47.3284,72.123474c-2.510803,4.956909,15.064697,16.853638,23.099289,18.836304
							c8.0345,1.982788,60.761093-72.866882,67.791397-83.772156c7.030212-10.905334,47.632019-88.961243,48.207214-100.130249
							C334.666077,889.224792,323.765503,878.307678,293.965302,895.018494z"/>
					</g>
				</g>
			</g>
			<g>
				<g>
					<g>
						<path class="st10" d="M414.795776,1150.23645c0.202118,0,0.390228-0.126953,0.458221-0.328735
							c0.085999-0.253174-0.05011-0.527588-0.303314-0.613159c-8.2612-2.793213-15.390503-10.519165-19.070404-20.667114
							c-3.377594-9.320312-3.863281-19.746948-4.29129-28.946777c-0.012207-0.266357-0.254974-0.478516-0.505402-0.460571
							c-0.266388,0.012329-0.473389,0.239014-0.460083,0.505859c0.430786,9.267944,0.919281,19.772949,4.3479,29.231201
							c3.834778,10.577881,11.003876,18.324585,19.669373,21.253906
							C414.691803,1150.228516,414.74469,1150.23645,414.795776,1150.23645z"/>
					</g>
				</g>
			</g>
			<g>
				<g>
					<g>
						<path class="st10" d="M289.870789,1160.191162c0.052917,0,0.105804-0.008423,0.158691-0.026855
							c10.07901-3.50415,18.894806-11.922729,24.822327-23.703735c5.27948-10.490356,7.748199-22.103516,10.136597-33.334229
							c0.055786-0.26123-0.111511-0.518188-0.373199-0.573975c-0.252197-0.053345-0.5177,0.110474-0.573517,0.372681
							c-2.375092,11.170654-4.831604,22.722046-10.053406,33.100952c-5.815094,11.555176-14.436279,19.803223-24.276184,23.224731
							c-0.252319,0.087891-0.385498,0.363281-0.298615,0.615479
							C289.48349,1160.06604,289.670502,1160.191162,289.870789,1160.191162z"/>
					</g>
				</g>
			</g>
			<g>
				<g>
					<g>
						<path class="st10" d="M346.512482,1159.430176c0.000916,0,0.001923,0,0.003815,0l9.236206-0.065552
							c0.254089-0.001953,0.463898-0.200317,0.478973-0.454468l3.359619-55.094116
							c0.016083-0.266479-0.187103-0.496094-0.453491-0.512085c-0.252228-0.012329-0.495026,0.187012-0.512115,0.453491
							l-3.332184,54.642944l-8.319824,0.05896l-2.475281-51.090454c-0.013214-0.266479-0.219208-0.478638-0.506409-0.459717
							c-0.266388,0.013306-0.472412,0.23999-0.459198,0.506958l2.497101,51.553955
							C346.041992,1159.227539,346.254578,1159.430176,346.512482,1159.430176z"/>
					</g>
				</g>
			</g>
		</g>
		<g>
			<path class="st4" d="M1674.984863,1343.390625c-32.609863,0-59.045288-26.435791-59.045288-59.045776
				c0-32.610229,26.435425-59.045654,59.045288-59.045654c8.773804,0,17.092896,1.928223,24.578247,5.360962v-152.722412
				h-152.453369c3.263794-7.333252,5.086914-15.44104,5.086914-23.979492c0-32.61145-26.436523-59.047974-59.040405-59.047974
				c-32.611328,0-59.04834,26.436523-59.04834,59.047974c0,8.538452,1.823608,16.64624,5.087036,23.979492h-152.453003v152.71936
				c-7.481934-3.428101-15.800903-5.360962-24.574097-5.360962c-32.61145,0-59.04834,26.436523-59.04834,59.047974
				c0,32.611938,26.43689,59.04834,59.04834,59.04834c8.773193,0,17.092163-1.932739,24.574097-5.360962v152.727051h152.453003
				c-17.428467-39.161987,11.441895-83.027344,53.961304-83.027344c42.5979,0,71.343262,43.959351,53.953491,83.027344h152.453369
				v-152.729004C1692.077759,1341.46228,1683.758667,1343.390625,1674.984863,1343.390625z"/>
			<path class="st11" d="M2112.382812,1230.65979v-152.72522h-152.453857
				c17.329102-38.937256-11.227051-83.023865-53.955933-83.023865c-42.812256,0-71.242432,44.183289-53.956177,83.023865
				h-152.454102v152.72522c-38.774902-17.780029-83.623169,10.451416-83.623169,53.685059
				c0,43.40271,44.951416,71.419678,83.623169,53.684692v152.725586h152.454102
				c-3.261841-7.329346-5.089966-15.437866-5.089966-23.977905c0-32.610352,26.436157-59.045776,59.046143-59.045776
				c32.609863,0,59.045288,26.435425,59.045288,59.045776c0,8.540039-1.827393,16.64856-5.089355,23.977905h152.453857v-152.725098
				c-38.774414,17.780029-83.622681-10.451416-83.622681-53.685181
				C2028.760132,1240.941895,2073.709961,1212.926392,2112.382812,1230.65979z"/>
			<path class="st12" d="M1286.310547,1230.661255v-152.725098h-152.453857
				c17.329102-38.937378-11.227173-83.023987-53.955933-83.023987c-42.812256,0-71.242432,44.183289-53.956177,83.023987H873.490356
				v152.725098c-38.774902-17.779907-83.623047,10.451416-83.623047,53.685181c0,43.402588,44.951355,71.419678,83.623047,53.684692
				v152.725464h152.454224c-3.261902-7.329346-5.089966-15.437866-5.089966-23.977783
				c0-32.610352,26.436035-59.045654,59.046143-59.045654c32.609863,0,59.045288,26.435303,59.045288,59.045654
				c0,8.539917-1.827393,16.648438-5.089355,23.977783h152.453857v-152.725098
				c-38.774536,17.780029-83.622803-10.451416-83.622803-53.685059
				C1202.687744,1240.943359,1247.637573,1212.927856,1286.310547,1230.661255z"/>
			<path class="st2" d="M848.912598,1343.393799c-32.609924,0-59.045288-26.435669-59.045288-59.045654
				s26.435364-59.045776,59.045288-59.045776c8.773804,0,17.092896,1.928345,24.578186,5.361084v-152.722168h-152.45343
				c17.389832-39.067993-11.355591-83.027405-53.953369-83.027405c-42.51947,0-71.389771,43.865417-53.961426,83.027405H460.669586
				v152.71936c-38.770782-17.78064-83.622406,10.455811-83.622406,53.6875c0,43.403809,44.953308,71.421143,83.622406,53.687378
				v152.71936h152.452972c-17.326782-38.927368,11.214905-83.019653,53.961426-83.019653
				c42.809204,0,71.241577,44.186279,53.953369,83.019653h152.45343v-152.721924
				C866.005493,1341.465576,857.686401,1343.393799,848.912598,1343.393799z"/>
		</g>
		<path class="st13" d="M2304.291016,1490.754883H207.694794c-12.972794,0-23.489395,10.516602-23.489395,23.48938l0,0
			c0,12.972778,10.516602,23.48938,23.489395,23.48938h2096.596191c12.9729,0,23.489258-10.516602,23.489258-23.48938l0,0
			C2327.780273,1501.271484,2317.263916,1490.754883,2304.291016,1490.754883z"/>
		<g>
			<g>
				<path class="st7" d="M2276.537598,1473.137573c-1.277832,0.880981,2.282227,8.192993,10.65918,8.171021
					c2.870117-0.007568,13.222412-7.267578,12.889404-7.874146c-2.469482-4.497437-5.885254-35.114624-9.813721-46.758179
					c-0.379395-1.12439-22.876953,1.48999-22.002197,5.696777c1.292725,6.216797,7.241211,19.578613,10.199951,32.547363
					C2279.099854,1467.680542,2278.207031,1471.986572,2276.537598,1473.137573z"/>
				<path class="st5" d="M2255.01709,1490.166748c11.887695,0.942627,38.830322,0.608276,43.415039,0
					c4.118896-0.546509,2.424561-17.029175,1.680176-17.029175s-7.294189,4.491211-10.662598,4.678467
					c-3.368408,0.187012-10.292236-4.491211-12.912109-4.678467c-2.620117-0.187134-21.894775,6.549683-27.813477,9.198242
					C2243.518066,1484.665527,2245.857178,1489.44043,2255.01709,1490.166748z"/>
			</g>
			<path class="st5" d="M2249.698486,1053.400024c0.676514,3.78186,1.911865,6.800903,3.322754,9.947632
				c19.102539,42.600342,18.018066,163.095093,21.399902,186.589844c2.231689,15.503784,1.917969,31.056763,4.613525,46.453247
				c2.926025,16.713501,8.290283,32.866943,11.267822,49.570312c2.943359,16.512451,3.54248,33.326782,5.729492,49.940674
				c1.099854,8.355225,2.577637,16.685913,4.994141,24.759277c1.849609,6.178345,5.510742,12.400757,3.968262,19.092773
				c-2.775391,12.04126-35.031738,12.846802-45.27124,11.67627c-0.421631-0.048218-0.844971-0.093018-1.257324-0.200684
				c-6.382324-17.326782-31.107422-160.256714-36.817139-192.395142c-13.103516-73.75647-44.522217-135.915283-52.452393-204.570923
				C2181.592285,1054.263306,2239.946045,1053.513306,2249.698486,1053.400024z"/>
			<g>
				<path class="st7" d="M2143.220703,982.329102c-16.869141,8.86908-66.423584,5.171021-69.700195,5.936707
					c-4.467041,1.043884-8.316895,18.7677-1.296631,19.68689c6.447021,0.844177,66.5979,12.60321,84.578613,8.039124
					c9.599854-2.436707,53.45752-70.434509,61.532715-85.830017c2.696289-5.140808-27.773682-22.081299-32.852051-13.982117
					C2183.22998,919.773071,2148.556641,979.523682,2143.220703,982.329102z"/>
				<g>
					<path class="st7" d="M2026.966675,980.835693c10.159912,0.314087,31.91272,4.400391,41.099976,6.157532
						c2.918945,0.558167,11.938965,1.252991,12.237061,1.89917c1.963867,4.259399-2.714844,21.123596-5.382812,19.724426
						c-0.883789-0.463623-8.00293-1.626831-8.693115-1.541443c-9.250488,1.144836-20.318237,2.121216-32.172241-4.121399
						C2025.151489,998.265015,2018.916016,980.586792,2026.966675,980.835693z"/>
					<path class="st7" d="M2070.414307,987.340576c3.524902,1.159119-7.779297,5.345154-10.667969,3.30603
						c-2.888672-2.039001-10.521973-8.758118-13.103516-10.81842c-2.258057-1.802002-0.19873-7.103394,3.750488-4.644897
						C2054.342773,977.641785,2064.553467,985.41333,2070.414307,987.340576z"/>
				</g>
			</g>
			<path class="st12" d="M2204.669434,891.490112c24.567383,8.327393,1.16626,71.071106-11.916992,94.88446
				c-12.46582,7.286804-40.01709-7.717651-45.173096-18.806396
				C2149.668701,960.520508,2180.102295,883.16272,2204.669434,891.490112z"/>
			<g>
				<path class="st7" d="M2091.076416,1468.751465c-1.936279,0.769775,19.148682,11.342773,21.276367,9.661255
					c2.127686-1.681396,20.92041-51.650757,19.844727-52.154785c-7.387939-3.462036-18.458008-7.916992-22.710205-7.301392
					C2104.819336,1419.632446,2109.026855,1461.615356,2091.076416,1468.751465z"/>
				<path class="st5" d="M2066.766602,1479.161865c11.205566,4.078979,37.261719,10.941895,41.842529,11.578491
					c4.115479,0.571777,6.878418-15.765869,6.160889-15.964355c-0.717529-0.198608-8.227783,2.383301-11.52417,1.665283
					c-3.296143-0.718018-8.721924-7.073364-11.196777-7.952515c-2.475098-0.879028-22.848633,0.473389-29.259033,1.447632
					C2057.150879,1470.793335,2058.13208,1476.019043,2066.766602,1479.161865z"/>
			</g>
			<path class="st5" d="M2169.196289,1054.263306c-0.951904,39.236084-30.464355,178.716431-34.245361,204.669922
				c-10.510986,72.147217-33.735352,157.846313-39.142578,179.865234c-1.657959,6.750732,34.217529,16.745972,38.593994,17.559082
				c7.928223,1.473022,12.260986,1.423706,15.535645-6.416748c4.545654-10.884155,5.218262-30.119141,8.171875-41.580322
				c12.117676-47.019043,25.109619-88.175293,34.73877-135.802612c14.830078-73.350952,82.392578-127.866821,56.849854-219.157837
				C2239.68457,1053.241943,2180.378174,1054.63269,2169.196289,1054.263306z"/>
			<g>
				<path class="st14" d="M2223.981689,1201.29895l-0.775146-0.400269c16.352295-31.716919,34.886963-67.666016,31.310547-111.20752
					l0.868652-0.071533C2258.983643,1133.40979,2240.388428,1169.477417,2223.981689,1201.29895z"/>
			</g>
			<path class="st5" d="M2169.445801,827.974609c-0.036133,7.123779-0.072021,14.247681-0.108154,21.371521
				c-0.01416,2.776062-0.084961,5.743469-1.65332,8.022156c-1.823486,2.649597-5.355957,3.861206-6.747803,6.766235
				c-1.113281,2.323853-0.532715,5.111267,0.425537,7.504761s2.282959,4.685303,2.657227,7.239624
				c0.525879,3.589111-0.887451,7.136292-1.595215,10.69342c-0.707764,3.556946-0.435791,7.845947,2.462646,9.985291
				c1.764404,1.302307,4.307861,1.640564,5.452881,3.52179c0.403809,0.663391,0.580322,1.455688,1.033203,2.085876
				c0.61084,0.849915,1.629883,1.282288,2.611572,1.626526c4.088135,1.433167,8.543213,2.027588,12.772705,1.104919
				c4.229736-0.922607,8.201904-3.477234,10.34082-7.280334c1.468994-2.612366,2.017334-5.641907,2.395264-8.622681
				c2.387939-18.837585-1.290283-38.411926-10.344727-55.051514c-1.167969-2.146301-2.448486-4.277527-4.239502-5.927185
				c-3.675781-3.385742-8.958984-4.277588-13.930176-4.391602c-0.892578-0.020508-2.171631,0.609497-1.685547,1.367004
				L2169.445801,827.974609z"/>
			<path class="st7" d="M2211.851318,854.843506c-0.730713,9.135315-0.730713,17.905273,0,22.290222
				c0.730957,4.384949,18.758057,22.180481,18.758057,22.180481s-48.876953,3.03717-44.713135-4.927795
				c3.474609-6.647217,3.150391-31.112-0.138428-35.131592C2182.469238,855.235291,2211.851318,854.843506,2211.851318,854.843506z"
				/>
			<path class="st8" d="M2188.258545,872.049683c0,0,11.945068-2.899902,16.662842-7.144653
				c-2.670654,4.8172-7.67627,9.909363-16.574463,13.637695C2188.43042,875.148499,2188.258545,872.049683,2188.258545,872.049683z"
				/>
			<path class="st7" d="M2220.952881,838.945496c0,22.224426-25.496582,33.765381-38.797852,33.765381
				c-10.093018,0-14.181885-19.882568-16.078369-39.485168c-2.164062-22.366821-3.889648-29.631287,10.709229-38.25061
				C2189.717041,787.34021,2220.952881,816.721191,2220.952881,838.945496z"/>
			<path class="st12" d="M2186.616455,892.1474c1.003906,8.396606,23.339844-5.052795,34.349365-3.656799
				c41.295166,22.9328,34.442871,140.426147,28.732666,165.352051c-22.28833,0-80.502197,0.810303-80.502197,0.810303
				c-1.870605-3.290405-7.004395-86.145935-6.12207-112.336731C2163.762207,921.901917,2181.964111,896.31488,2186.616455,892.1474z
				"/>
			<g>
				<path class="st15" d="M2163.658203,982.048218c-0.181396,0-0.35083-0.114136-0.412842-0.295593
					c-4.920654-14.426208-2.097168-25.843323,1.314209-35.109314c0.083496-0.226135,0.335449-0.341125,0.55957-0.258484
					c0.225586,0.082947,0.341553,0.333862,0.258057,0.559998c-3.357666,9.12207-6.138428,20.358154-1.305908,34.526794
					c0.077637,0.227356-0.044189,0.475159-0.272461,0.553589C2163.75293,982.040527,2163.705078,982.048218,2163.658203,982.048218z
					"/>
			</g>
			<g>
				<path class="st16" d="M1983.624023,896.115417c0.462036-1.770691,0.778198-2.672729,2.542236-2.748413
					c1.061523-0.045532,2.477295,0.384705,3.428223,0.154907c1.648315-0.398193,1.337158-2.047424,1.733398-3.594482
					c0.459351-1.79303,2.441162-1.97052,3.732056-2.767151c0,0-44.810791-47.413757-45.345947-47.038391
					c-0.535034,0.375427,28.62854,58.406006,28.62854,58.406006c1.032349-0.22229,2.398193,0.593811,3.369019,0.275024
					C1982.80249,898.444702,1983.314453,897.301392,1983.624023,896.115417z"/>
				<path class="st17" d="M1995.059448,887.1604l158.238159,225.555176c1.865723,2.659668,1.067383,6.588379-1.677734,9.691528
					c-0.066406,0.0802-0.135498,0.156738-0.207275,0.229248c-0.628906,0.682495-1.356689,1.322021-2.171875,1.893799
					c-1.151123,0.807495-2.365234,1.407104-3.580322,1.794312c-0.0979,0.035156-0.201416,0.062744-0.304688,0.090332
					c-3.496338,1.029175-6.912842,0.320679-8.604736-2.090942L1978.34436,898.52832
					c1.030151-0.223938,2.397583,0.593689,3.366699,0.272461c1.092041-0.356873,1.603394-1.500366,1.911621-2.686401
					c0.015015-0.060974,0.030273-0.116394,0.04541-0.171997c0.034668-0.130676,0.069336-0.255981,0.101685-0.379578
					c0.399048-1.406616,0.825317-2.126099,2.395996-2.196716c1.062256-0.044373,2.478882,0.385498,3.429321,0.155884
					c0.344727-0.084778,0.602661-0.221069,0.799316-0.403748c0.07666-0.07074,0.145752-0.147095,0.204468-0.233215
					c0.520996-0.713013,0.447998-1.861328,0.730103-2.956116C1991.786987,888.133423,1993.77124,887.957703,1995.059448,887.1604z"
					/>
				<path class="st5" d="M1983.769775,895.562805l161.890625,230.761658c-0.0979,0.035156-0.201416,0.062744-0.304688,0.090332
					l-161.687622-230.472412C1983.702759,895.811707,1983.737427,895.686401,1983.769775,895.562805z"/>
				<path class="st5" d="M1990.598877,892.88501l161.020996,229.522095c-0.066406,0.0802-0.135498,0.156738-0.207275,0.229248
					l-161.018188-229.518127C1990.471069,893.047485,1990.540161,892.97113,1990.598877,892.88501z"/>
				<path class="st5" d="M1967.060425,857.72052c-9.177734-9.577515-17.122925-17.755432-17.346436-17.598633
					c-0.224121,0.157227,4.760864,10.426697,10.630493,22.31012L1967.060425,857.72052z"/>
			</g>
			<g>
				<rect x="2168.009033" y="1055.082642" class="st14" width="81.745201" height="0.8722"/>
			</g>
			<g>
				<path class="st7" d="M2206.786865,1016.356628c-5.02002,11.325134-60.05957,33.952698-62.543945,36.222229
					c-3.386719,3.093994,2.184082,20.92749,8.757812,18.297852c6.037109-2.414795,67.931152-20.571533,80.227783-32.856689
					c7.006592-7.000366,12.356689-85.35321,11.876221-102.731201c-0.1604-5.802917-37.94873-9.872314-38.42041-0.324219
					C2206.475098,939.200806,2209.229736,1010.845215,2206.786865,1016.356628z"/>
				<g>
					<path class="st7" d="M2101.024902,1074.363892c8.497314-5.578247,28.651123-14.726929,37.181152-18.565308
						c2.710205-1.219604,10.49292-5.831543,11.108154-5.473633c4.053955,2.358765,9.909912,18.851196,6.922363,19.238037
						c-0.989746,0.128174-7.485596,3.264893-8.001465,3.731079c-6.914795,6.250244-14.322021,13.67981-28.703613,15.104492
						C2108.19043,1089.522095,2094.291504,1078.784058,2101.024902,1074.363892z"/>
					<path class="st7" d="M2140.327393,1054.734497c3.55127-1.075562-3.833984,9.922852-7.369629,9.91272
						s-12.490234-1.478271-16.404785-2.409058c-2.810303-0.668335-4.242432-5.700806,0.402588-5.956665
						C2121.600586,1056.025757,2134.422852,1056.522949,2140.327393,1054.734497z"/>
				</g>
			</g>
			<path class="st12" d="M2225.192871,895.390076c19.318115-0.015381,30.053223,58.510437,26.462402,85.443054
				c-12.043213,8.938782-32.307373,0.779297-50.939941,0.256775
				C2200.115967,973.763489,2199.252686,895.410889,2225.192871,895.390076z"/>
			<g>
				<path class="st15" d="M2207.192139,982.048218c-0.011719,0-0.023926-0.000916-0.035645-0.001709l-6.47583-0.522095
					c-0.223145-0.017944-0.395996-0.200989-0.401123-0.424194c-0.257324-10.971191,1.126709-21.58551,4.486084-34.416443
					c0.060547-0.233398,0.29541-0.372681,0.532227-0.311768c0.232666,0.061279,0.372314,0.299377,0.311035,0.53241
					c-3.297119,12.595764-4.679443,23.035095-4.465576,33.782654l6.083008,0.490601
					c0.23999,0.018738,0.418945,0.229126,0.399414,0.469299C2207.60791,981.875305,2207.416992,982.048218,2207.192139,982.048218z"
					/>
			</g>
			<g>
				<g>
					<path class="st5" d="M2260.796143,845.246826c-4.93042-4.963745-10.888672-9.24762-13.833008-15.621643
						c-2.246094-4.862793-2.465088-10.400513-3.808838-15.59259c-1.343506-5.192017-5.82251-9.856079-13.337646-13.274719
						c-9.0625-4.122375-5.389404-10.058899-20.68042-13.656372c-6.768311-1.592285-26.68457-2.997925-36.968018,4.13092
						c-7.145752,4.953796-21.481689,20.399658-12.068359,28.910095c1.386963,1.253784,3.742432,1.383667,6.362793,0.844971
						c6.969482-1.432861,10.158447-7.402405,14.854492-4.946594c2.799316,1.463928,2.348389,5.751892,5.497559,5.633179
						c12.376465-0.465942,19.516113,14.964722,17.123779,22.237854c-2.047119,6.223145,4.679688,26.022949-1.670898,39.051392
						c-2.752686,5.647766-7.889404,10.492065-8.090576,16.7854c-0.176514,5.522095,4.021729,10.582275,9.188965,12.380066
						s10.98999,0.748596,15.861328-1.755005c2.986816-1.53479,5.749756-3.610352,8.981689-4.502502
						c3.892334-1.07428,8.018799-0.31665,11.993164,0.38623c3.974365,0.702698,8.14917,1.33197,11.971191,0.024902
						c3.821777-1.306885,7.093262-5.201721,6.31665-9.204712c-0.937988-4.835693-7.094727-7.858093-6.727295-12.771912
						c0.15625-2.087158,1.524658-3.870056,2.989014-5.349609c4.780518-4.829468,11.520264-8.441101,13.352783-15.017761
						C2269.991455,857.167419,2265.726562,850.210571,2260.796143,845.246826z"/>
				</g>
				<path class="st7" d="M2212.859863,843.246277c-0.208008,5.380493-3.485352,9.619446-7.320068,9.467834
					s-6.774658-4.63623-6.56665-10.016724c0.208252-5.380493,3.485352-9.619263,7.320068-9.467773
					C2210.12793,833.381226,2213.068115,837.865784,2212.859863,843.246277z"/>
			</g>
			<g>
				<path class="st14" d="M2190.574707,1132.944824c-15.982666-10.607544-20.766846-30.567017-14.626709-61.019165
					l0.855225,0.172119c-6.062744,30.065308-1.400391,49.731079,14.253662,60.119629L2190.574707,1132.944824z"/>
			</g>
			<g>
				<rect x="2168.662354" y="1067.868896" class="st14" width="86.226097" height="0.8722"/>
			</g>
			<g>
				<path class="st15" d="M2243.190674,985.254089c-0.224854,0-0.415527-0.172913-0.433594-0.401184
					c-0.019531-0.240112,0.160156-0.4505,0.399658-0.469299c3.111328-0.247803,6.945801-1.269897,9.768555-2.604614
					c0.21875-0.099609,0.477783-0.010193,0.580811,0.207886c0.103027,0.218018,0.009277,0.477844-0.208008,0.580811
					c-2.911133,1.37561-6.864014,2.429993-10.071533,2.684692C2243.2146,985.253296,2243.202637,985.254089,2243.190674,985.254089z
					"/>
			</g>
		</g>
		<path class="st18" d="M355.455505,1491.698975c0,1.361694,0,2.723389,0,4.085083"/>
		<g>
			<g>
				<g>
					<rect x="1791.370361" y="662.838928" class="st19" width="34.752998" height="68.513603"/>
					<g>
						<rect x="1850.65271" y="599.271179" class="st20" width="34.753101" height="132.081299"/>
					</g>
					<g>
						<rect x="1909.935059" y="636.282776" class="st21" width="34.752998" height="95.069702"/>
					</g>
					<g>
						<rect x="1969.217407" y="574.77063" class="st11" width="34.753101" height="156.581894"/>
					</g>
				</g>
			</g>
			<path class="st6" d="M1986.59314,464.167389c-9.387695,0-17.025146,7.637421-17.025146,17.025116
				c0,4.225983,1.556763,8.089294,4.115845,11.068909l-40.440552,57.963867c-1.85083-0.690979-3.844238-1.087769-5.932617-1.087769
				c-4.523926,0-8.632202,1.785461-11.684814,4.674866l-31.373535-19.680054c0.518311-1.627014,0.803101-3.357422,0.803101-5.154297
				c0-9.387756-7.639282-17.027039-17.0271-17.027039c-9.387695,0-17.025269,7.639282-17.025269,17.027039
				c0,2.907471,0.734741,5.644958,2.025757,8.041748l-35.056519,32.317139c-2.661621-1.724792-5.824341-2.73761-9.224487-2.73761
				c-9.387817,0-17.0271,7.639282-17.0271,17.0271c0,9.387695,7.639282,17.025085,17.0271,17.025085
				s17.025146-7.63739,17.025146-17.025085c0-2.907532-0.734619-5.645996-2.025635-8.042725l35.056519-32.317078
				c2.661621,1.723816,5.824341,2.736572,9.224487,2.736572c4.523926,0,8.632202-1.785461,11.684937-4.674866l31.375366,19.680115
				c-0.518311,1.626953-0.802979,3.357361-0.802979,5.154297c0,9.387695,7.637329,17.026978,17.025024,17.026978
				c9.387817,0,17.0271-7.639282,17.0271-17.026978c0-4.225891-1.556641-8.089294-4.115723-11.068848l40.438477-57.962067
				c1.850952,0.69101,3.84436,1.087799,5.932617,1.087799c9.387817,0,17.0271-7.639313,17.0271-17.0271
				C2003.620239,471.80481,1995.980957,464.167389,1986.59314,464.167389z M1808.747803,592.142822
				c-4.696655,0-8.518311-3.819702-8.518311-8.516418c0-4.696777,3.821655-8.518311,8.518311-8.518311
				s8.516357,3.821533,8.516357,8.518311C1817.26416,588.32312,1813.444458,592.142822,1808.747803,592.142822z
				 M1868.02832,537.494385c-4.696777,0-8.516479-3.81958-8.516479-8.516357c0-4.696716,3.819702-8.51825,8.516479-8.51825
				c4.696655,0,8.518311,3.821533,8.518311,8.51825C1876.546631,533.674805,1872.724976,537.494385,1868.02832,537.494385z
				 M1927.310669,574.68103c-4.696655,0-8.516357-3.821655-8.516357-8.518311c0-4.696838,3.819702-8.516418,8.516357-8.516418
				c4.696777,0,8.518311,3.81958,8.518311,8.516418C1935.828979,570.859375,1932.007446,574.68103,1927.310669,574.68103z
				 M1986.59314,489.710785c-4.696777,0-8.516357-3.821472-8.516357-8.51828c0-4.696716,3.81958-8.516296,8.516357-8.516296
				s8.518311,3.81958,8.518311,8.516296C1995.11145,485.889313,1991.289917,489.710785,1986.59314,489.710785z"/>
		</g>
		<g>
			<path class="st19" d="M499.915375,427.156189l4.354401-20.341187h46.107483l4.354309,20.341187l24.017639,7.803711
				l15.479004-13.896912l37.301697,27.10141l-8.433411,19.015717l14.843567,20.430573l20.691223-2.144592l14.247986,43.850922
				l-18,10.427002v25.253479l18,10.427002l-14.247986,43.850891l-20.691223-2.14447l-14.843567,20.430481l8.433411,19.015808
				l-37.301697,27.101318l-15.479004-13.896912l-24.017639,7.803772l-4.354309,20.341125h-46.107483l-4.354401-20.341125
				l-24.017487-7.803772l-15.479004,13.896912l-37.301788-27.101318l8.433502-19.015808l-14.843597-20.430481l-20.691223,2.14447
				L381.767792,575.4245l18-10.427002v-25.253479l-18-10.427002l14.247986-43.850922l20.691223,2.144592l14.843597-20.430573
				l-8.433502-19.015717l37.301788-27.10141l15.479004,13.896912L499.915375,427.156189z M454.545685,552.370789
				c0,40.194092,32.58371,72.777832,72.777802,72.777832s72.777893-32.58374,72.777893-72.777832
				s-32.583801-72.777893-72.777893-72.777893S454.545685,512.176697,454.545685,552.370789z"/>
			<path class="st2" d="M592.497803,271.773987l2.279785-10.649597h24.139526l2.279663,10.649597l12.574402,4.085602
				l8.104004-7.275696l19.529297,14.188904l-4.415405,9.955597l7.771423,10.696411l10.832764-1.122711l7.459595,22.958008
				l-9.423828,5.459106v13.221405l9.423828,5.459076l-7.459595,22.958008l-10.832764-1.122711l-7.771423,10.696411
				l4.415405,9.955597l-19.529297,14.188904l-8.104004-7.275696l-12.574402,4.085693l-2.279663,10.649506h-24.139526
				l-2.279785-10.649506l-12.574341-4.085693l-8.104004,7.275696l-19.529297-14.188904l4.415344-9.955597l-7.771301-10.696411
				l-10.832947,1.122711l-7.459473-22.958008l9.423889-5.459076v-13.221405l-9.423889-5.459106l7.459473-22.958008
				l10.832947,1.122711l7.771301-10.696411l-4.415344-9.955597l19.529297-14.188904l8.104004,7.275696L592.497803,271.773987z
				 M568.744568,337.329895c0,21.04361,17.059204,38.102814,38.102722,38.102814
				c21.043579,0,38.102783-17.059204,38.102783-38.102814s-17.059204-38.102783-38.102783-38.102783
				C585.803772,299.227112,568.744568,316.286285,568.744568,337.329895z"/>
			<path class="st11" d="M755.593201,381.680511l3.04895-14.243317h32.285522l3.049011,14.243317l16.817566,5.464386
				l10.838745-9.730896l26.119507,18.976898l-5.905334,13.315186l10.393921,14.305908l14.488403-1.501587l9.976685,30.705292
				l-12.604004,7.301208v17.683105l12.604004,7.301178l-9.976685,30.705292l-14.488403-1.501709l-10.393921,14.30603
				l5.905334,13.315186l-26.119507,18.976929l-10.838745-9.730896l-16.817566,5.464355l-3.049011,14.243347h-32.285522
				l-3.04895-14.243347l-16.817627-5.464355l-10.838684,9.730896l-26.119507-18.976929l5.905273-13.315186l-10.393799-14.30603
				l-14.488403,1.501709l-9.976746-30.705292l12.604004-7.301178v-17.683105l-12.604004-7.301208l9.976746-30.705292
				l14.488403,1.501587l10.393799-14.305908l-5.905273-13.315186l26.119507-18.976898l10.838684,9.730896L755.593201,381.680511z
				 M723.82428,469.358398c0,28.144806,22.815918,50.960693,50.960693,50.960693
				c28.144714,0,50.960632-22.815887,50.960632-50.960693c0-28.144684-22.815918-50.960602-50.960632-50.960602
				C746.640198,418.397797,723.82428,441.213715,723.82428,469.358398z"/>
		</g>
		<g>
			<g>
				<g>
					<g>
						<path class="st0" d="M478.554901,1047.378906c-8.093018,0-14.7146,6.62146-14.7146,14.714478v0.001465
							c0,8.093018,6.621582,14.7146,14.7146,14.7146h85.839569c0,0-4.630371-3.76709-4.630371-14.715332
							c0-10.94812,4.630371-14.71521,4.630371-14.71521H478.554901z"/>
					</g>
				</g>
				<g>
					<g>
						<path class="st5" d="M564.394409,1078.346313h-85.839508c-8.961212,0-16.251526-7.290283-16.251526-16.251465
							c0-8.962524,7.290314-16.25293,16.251526-16.25293h85.839508c0.848755,0,1.536987,0.688232,1.536987,1.536987
							c0,0.848633-0.688232,1.536865-1.536987,1.536865h-85.839508c-7.266205,0-13.177704,5.911499-13.177704,13.177612
							c0,7.267578,5.911499,13.179077,13.177704,13.179077h85.839508c0.848755,0,1.536987,0.68811,1.536987,1.536987
							C565.931396,1077.658203,565.243164,1078.346313,564.394409,1078.346313z"/>
					</g>
				</g>
				<g>
					<g>
						<g>
							<path class="st22" d="M554.505859,1054.712036h-77.516266c-0.127319,0-0.230499-0.103394-0.230499-0.230591
								s0.10318-0.230591,0.230499-0.230591h77.516266c0.127319,0,0.23053,0.103394,0.23053,0.230591
								S554.633179,1054.712036,554.505859,1054.712036z"/>
						</g>
					</g>
					<g>
						<g>
							<path class="st22" d="M552.110413,1058.518311h-77.516327c-0.127197,0-0.230499-0.103271-0.230499-0.230469
								c0-0.127319,0.103302-0.230591,0.230499-0.230591h77.516327c0.127258,0,0.230591,0.103271,0.230591,0.230591
								C552.341003,1058.415039,552.237671,1058.518311,552.110413,1058.518311z"/>
						</g>
					</g>
					<g>
						<g>
							<path class="st22" d="M554.505859,1069.937256h-77.516266c-0.127319,0-0.230499-0.103149-0.230499-0.230469
								s0.10318-0.230469,0.230499-0.230469h77.516266c0.127319,0,0.23053,0.103149,0.23053,0.230469
								S554.633179,1069.937256,554.505859,1069.937256z"/>
						</g>
					</g>
					<g>
						<g>
							<path class="st22" d="M552.110413,1066.130981h-77.516327c-0.127197,0-0.230499-0.103149-0.230499-0.230469
								s0.103302-0.230469,0.230499-0.230469h77.516327c0.127258,0,0.230591,0.103149,0.230591,0.230469
								S552.237671,1066.130981,552.110413,1066.130981z"/>
						</g>
					</g>
					<g>
						<g>
							<path class="st22" d="M549.714783,1062.324707h-77.516296c-0.127197,0-0.230499-0.103149-0.230499-0.230469
								s0.103302-0.230591,0.230499-0.230591h77.516296c0.127319,0,0.230591,0.103271,0.230591,0.230591
								S549.842102,1062.324707,549.714783,1062.324707z"/>
						</g>
					</g>
				</g>
				<g>
					<g>
						<g>
							<polygon class="st23" points="483.0354,1069.706787 479.914886,1067.069824 476.794281,1069.706787 476.794281,1054.206665 
								483.0354,1054.206665 							"/>
						</g>
					</g>
					<g>
						<g>
							<polygon class="st24" points="476.794281,1054.206665 483.0354,1057.005859 483.0354,1054.206665 							"/>
						</g>
					</g>
				</g>
			</g>
		</g>
		<g>
			<g>
				<g>
					<g>
						<path class="st0" d="M478.554901,1014.874512c-8.093018,0-14.7146,6.621582-14.7146,14.7146v0.001343
							c0,8.093018,6.621582,14.7146,14.7146,14.7146h85.839569c0,0-4.630371-3.76709-4.630371-14.71521
							c0-10.948242,4.630371-14.715332,4.630371-14.715332H478.554901z"/>
					</g>
				</g>
				<g>
					<g>
						<path class="st10" d="M564.394409,1045.841919h-85.839508c-8.961212,0-16.251526-7.290283-16.251526-16.251465
							c0-8.962524,7.290314-16.252869,16.251526-16.252869h85.839508c0.848755,0,1.536987,0.68811,1.536987,1.536926
							c0,0.848694-0.688232,1.536865-1.536987,1.536865h-85.839508c-7.266205,0-13.177704,5.911499-13.177704,13.177734
							c0,7.267456,5.911499,13.178955,13.177704,13.178955h85.839508c0.848755,0,1.536987,0.688232,1.536987,1.536987
							S565.243164,1045.841919,564.394409,1045.841919z"/>
					</g>
				</g>
				<g>
					<g>
						<g>
							<path class="st22" d="M554.505859,1022.207581h-77.516266c-0.127319,0-0.230499-0.10321-0.230499-0.230469
								c0-0.127319,0.10318-0.230591,0.230499-0.230591h77.516266c0.127319,0,0.23053,0.103271,0.23053,0.230591
								C554.736389,1022.10437,554.633179,1022.207581,554.505859,1022.207581z"/>
						</g>
					</g>
					<g>
						<g>
							<path class="st22" d="M552.110413,1026.013916h-77.516327c-0.127197,0-0.230499-0.103271-0.230499-0.230469
								c0-0.127319,0.103302-0.230591,0.230499-0.230591h77.516327c0.127258,0,0.230591,0.103271,0.230591,0.230591
								C552.341003,1025.910645,552.237671,1026.013916,552.110413,1026.013916z"/>
						</g>
					</g>
					<g>
						<g>
							<path class="st22" d="M554.505859,1037.432983h-77.516266c-0.127319,0-0.230499-0.103271-0.230499-0.230591
								c0-0.127197,0.10318-0.230469,0.230499-0.230469h77.516266c0.127319,0,0.23053,0.103271,0.23053,0.230469
								C554.736389,1037.329712,554.633179,1037.432983,554.505859,1037.432983z"/>
						</g>
					</g>
					<g>
						<g>
							<path class="st22" d="M552.110413,1033.626709h-77.516327c-0.127197,0-0.230499-0.103271-0.230499-0.230591
								c0-0.127197,0.103302-0.230469,0.230499-0.230469h77.516327c0.127258,0,0.230591,0.103271,0.230591,0.230469
								C552.341003,1033.523438,552.237671,1033.626709,552.110413,1033.626709z"/>
						</g>
					</g>
					<g>
						<g>
							<path class="st22" d="M549.714783,1029.820435h-77.516296c-0.127197,0-0.230499-0.103394-0.230499-0.230591
								s0.103302-0.230591,0.230499-0.230591h77.516296c0.127319,0,0.230591,0.103394,0.230591,0.230591
								S549.842102,1029.820435,549.714783,1029.820435z"/>
						</g>
					</g>
				</g>
				<g>
					<g>
						<g>
							<polygon class="st23" points="483.0354,1037.202515 479.914886,1034.56543 476.794281,1037.202515 476.794281,1021.702393 
								483.0354,1021.702393 							"/>
						</g>
					</g>
					<g>
						<g>
							<polygon class="st24" points="476.794281,1021.702393 483.0354,1024.501587 483.0354,1021.702393 							"/>
						</g>
					</g>
				</g>
			</g>
		</g>
	</g>
</g>
</svg>
