<svg xmlns="http://www.w3.org/2000/svg" viewBox="0 0 290 293.73"><g data-name="Layer 2"><path d="M258.16 127.58c-2.2-5.78-6.73-10.94-12.23-14.66-15.89-10.09-40.11-10.81-56.48-1.69-8.93 4.56-14.8 13.57-16.63 22.84-3.31 15.24-2.46 33.38 9.28 44.8 13.7 12 33.62 14.66 51.35 9.73a22.88 22.88 0 0 0 5.35-1.81l.52-.22A36.22 36.22 0 0 0 254 175.51c9-13.22 9.66-33.04 4.16-47.93zm-28.86 34.23a9.38 9.38 0 0 1-5.63 7c-4.88 2.15-11.49 1.55-16-1-3.79-2.65-4.28-7.09-4.77-11.29-.37-8.28-1-17.05 1.35-24.63 1.82-4.69 6.83-5.9 11.37-6.25 4.77 0 9.4.72 12.35 4.57 1.83 2.76 1.72 6.37 2.08 9.61-.14 6.86.48 15.02-.75 21.99zm-144.87 7.46c-4-.25-8.56.11-12.46-.37l.12-42.17.25-.35 12.1-.12c.13-6.84.25-14.19-.13-20.43l-46.08-.13-7.59.13c-.12 6.37-.12 13.81 0 20.3 4.16.13 8.07 0 12.1.37v40.84l-.12 1.66-12.1.25c-.26 6.71-.26 13.21 0 19.82h53.91zm135.7 28.83a93.86 93.86 0 0 1-18.69 19.9c-.26.37-1 .23-1.22-.12-3.07-1.92-6.37-3.48-9.3-5.4A99.78 99.78 0 0 0 201.55 198h-3.8c-3 4.46-6.23 9.14-10.26 13.1a131.34 131.34 0 0 0-15.77-5.53l-.61-.46c.85-2.43 2.44-4.7 2.93-7.11h-3.3l-3.3 6.49a157.2 157.2 0 0 0-22.44-2.91c-.37-1.07.12-2.64-.37-3.61h-3.17c-.26 1.45.36 2.54-.37 3.74a141.35 141.35 0 0 0-22 2.65l-3.37-6.36c-1.21 0-2.56-.23-3.42.13l3.06 7.09-.36.35a155.51 155.51 0 0 0-16.14 5.65l-.49-.25A95.82 95.82 0 0 1 89 199.06c-.61-2.05-3.06-.85-4.4-1.1 2.93 5.29 6.84 10 10.75 14.79-3.3 1.93-6.59 4.08-10 5.65A88.11 88.11 0 0 1 66 198.1a14.21 14.21 0 0 0-3.92 0 95.87 95.87 0 0 0 36.81 32.8.11.11 0 0 1 .13-.11c.11 0 .35.22.11.35a101.1 101.1 0 0 0 30.81 9.49c37.53 4.92 73.36-11 94.14-42.53a19.89 19.89 0 0 0-3.95 0zm-51 10.81l.36-.25a68.33 68.33 0 0 1 14.92 5.16 76.66 76.66 0 0 1-13.57 11.53c-2.81 1.68-5.63 3.5-8.57 4.93l-5.22-2.28.36-.83a144.18 144.18 0 0 0 11.75-18.26zm-24.09-3.61a95.78 95.78 0 0 1 20.42 2.41l.13.36a123 123 0 0 1-12.35 18.62c-2.08.24-4-.59-6.11-.71l-2.09-.25c-.22-7.09-.35-13.34.03-20.43zm-23.59 2.16a106.25 106.25 0 0 1 19.8-2.16l.13 20.32c-2.58.58-5.39.58-7.83 1.2a107.47 107.47 0 0 1-12.71-18.88zM101.79 214a80.34 80.34 0 0 1 14.91-5.29l.5.13a187 187 0 0 0 12.34 19.1c-1.7 1-3.79 1.55-5.49 2.52a82.39 82.39 0 0 1-22.26-16.1zm15.77 20.54A86.78 86.78 0 0 1 89 221v-.37a70 70 0 0 1 9-5 124.54 124.54 0 0 0 22 16.94 9.63 9.63 0 0 1-2.44 1.93zm45.36 1.55a93.1 93.1 0 0 1-40.34-.23c-.24-.6.61-.72 1-1.07 11.37-7.33 29.09-7.33 40.23.58.33.68-.65.45-.89.68zm11.74-3.35l-5.75 1.8a13.58 13.58 0 0 1-2.69-1.93l.25-.36a108.85 108.85 0 0 0 21.64-16.7 48.27 48.27 0 0 1 9.42 5.16c-6.85 5.39-14.8 8.98-22.87 11.99zM65.73 96.57a111.94 111.94 0 0 1 9.9-11.89 65.06 65.06 0 0 1 9.54-8.06c3.18 2 6.73 3.75 9.78 5.66-3.79 4.66-7.7 9.37-10.52 14.4a7.26 7.26 0 0 0 3.67 0 92.88 92.88 0 0 1 10.27-12.84c5.25 1.93 10.39 4 15.77 5.41l.48.48-3.05 7a11 11 0 0 0 3.54 0c1.1-2 1.95-4.31 3.17-6.37A119.65 119.65 0 0 0 140.43 93c1 .85.24 2.65.61 3.73h3.3c.36-1.18-.12-2.52.36-3.59a117.32 117.32 0 0 0 21.42-2.78l.6.13 3.3 6.24c1.11 0 2.56.26 3.43-.24l-3.07-7 .26-.25a133.85 133.85 0 0 0 16.25-5.76 112.42 112.42 0 0 1 10.53 13.2 11.37 11.37 0 0 0 3.66-.24 48.91 48.91 0 0 0-5.26-7.57 52.36 52.36 0 0 0-5.39-6.47v-.62l8.57-4.91 1.24-.48a89.14 89.14 0 0 1 19.31 20.05c1.47 0 2.69.5 3.92-.11a96.78 96.78 0 0 0-72.61-42.52l-.13.23-.25-.23a56.08 56.08 0 0 0-10.89-.14 28.77 28.77 0 0 0-4.52.14 95.84 95.84 0 0 0-73.26 42.88c1.19-.12 2.69.37 3.92-.12zM116.47 86l-.49.11a97.93 97.93 0 0 1-14.55-4.92l.23-.72a96.06 96.06 0 0 1 21.64-15.72c1.84.72 3.67 1.32 5.5 2.17l-.36.94c-4.65 5.78-8.31 12.01-11.97 18.14zm24.32 3.23c-3.42.48-6.47-.11-9.91-.37-3.29-.48-7.45-.83-10.75-1.93a107.1 107.1 0 0 1 12.72-18.83l7.82 1.06c.33 6.26.12 13.48.12 20.09zm3.79.13c-.24-6.39-.12-13.47 0-20.08l7.58-1.07c4.77 6 9.42 12.14 12.6 18.72a86.77 86.77 0 0 1-20.18 2.45zm39-8.42A79.88 79.88 0 0 1 168.67 86a203.37 203.37 0 0 0-12.6-18.88c1.71-.94 3.8-1.66 5.63-2.62a86.31 86.31 0 0 1 22.13 16.07zm-15.65-20.52a87.17 87.17 0 0 1 28.73 13.45l-.25.48L188 79h-.62a106.55 106.55 0 0 0-21.76-16.57c.24-.81 1.46-1.43 2.31-2.01zM163 59.21v.25c-10.64 7.67-27.88 8.4-39.12 1.31-.63-.48-1.84-.71-2-1.55 13.04-3 28.32-3.22 41.12-.01zM88.46 74.12a87.86 87.86 0 0 1 25.31-12.73c.37-.37.61-.72 1.1-.72v.24c1 .23 1.71-.85 2.56-.14s1.6 1.1 2.2 1.69a123.79 123.79 0 0 0-21.88 16.92 40.21 40.21 0 0 1-9.29-5zm52.46 96.09c-11.5 3.13-24 .75-32.28-7.92-1-1.2-1.59-2.63-2.57-3.83l-16.5.12c-.26 9.73-.37 20.9 0 30.51l18.33-.09.24-5.77c2.09 1 4.16 2.16 6.24 3.23 12.72 5.29 29.09 6.49 41.68 0a24.69 24.69 0 0 0 12.72-25.24c-1.34-10.2-11.12-19.46-21-22l-29.59-8.54-2.19-1.07a3.35 3.35 0 0 1-1.35-3.24c2.32-4 7.71-2.76 11.74-2.65 8.56 1.2 17.36 4.09 22.37 11.9 5.38 0 11.61.11 17.48-.13.25-9.85-.11-18.49-.25-28.46-5.5-.13-12.23-.13-17.72.13-.25 1.43.24 3.46-.37 4.91l-5.62-3c-13.45-5.64-32.28-6.24-44.5 2.53-8 5.76-10.39 16.1-8.31 25.23 1.59 8.64 9.9 15 17.85 18 10.88 3.84 22.25 6.62 33.26 10.33 1.1.49 2.55 1.58 2.32 2.9-.03 1.07-1.13 1.69-1.98 2.15zM25.34 197.88l.6 1.37a.53.53 0 0 1-.31.67L8 207.54a.49.49 0 0 1-.67-.24l-.6-1.37a.5.5 0 0 1 .28-.66l17.63-7.61a.51.51 0 0 1 .7.22zm-5.21-14.23l.42 1.23a.54.54 0 0 1-.34.69l-8.52 2.87c-2.61.88-3.11 2-2.45 4a8.68 8.68 0 0 0 2.18 3.15l10.92-3.68a.56.56 0 0 1 .69.34l.43 1.27a.54.54 0 0 1-.35.66l-13.19 4.47a.52.52 0 0 1-.68-.32L8.8 197a.52.52 0 0 1 .35-.67l.49-.17a8.12 8.12 0 0 1-2.58-3.7c-1.05-3.11.42-5.15 3.85-6.32l8.52-2.86a.55.55 0 0 1 .7.37zm-2.42-10.18a13.46 13.46 0 0 1 .54 1.69c.57 2.45.22 3.76-2.69 4.46l-9.26 2.2.32 2.64a.49.49 0 0 1-.36.62l-.71.17a.48.48 0 0 1-.6-.38l-.62-2.58-2.6.62a.55.55 0 0 1-.64-.35l-.54-1.33v-.07a.44.44 0 0 1 .36-.51l2.87-.65-.68-2.87a.55.55 0 0 1 .4-.65l.9-.21a.55.55 0 0 1 .66.4l.68 2.86 9.26-2.25c1.46-.34 1.59-.77 1.33-1.83L16 174c-.09-.37 0-.58.25-.65l.93-.22c.2-.13.39.01.53.34zM9 161.2l1.25 9 .38-.05c3.21-.45 4.23-1.87 3.88-4.36a38.37 38.37 0 0 0-1-4.77.7.7 0 0 1 0-.14.38.38 0 0 1 .32-.48l.91-.13c.35-.05.55 0 .69.45a25.1 25.1 0 0 1 1.14 4.78c.43 3.11-.62 6.33-5.64 7l-2.44.33c-3.86.54-6.61-1.26-7.15-5.12S3 161.5 6.85 161l1.46-.2a.54.54 0 0 1 .69.4zm-1.8 2.17c-3.06.43-4.08 1.75-3.75 4.13s1.82 3.44 4.74 3h.24l-1-7.16zm-5.12-11.58a7 7 0 0 0 1.33 3.69l11.4-.59a.57.57 0 0 1 .56.52l.07 1.33a.54.54 0 0 1-.52.54L1.05 158a.52.52 0 0 1-.56-.49l-.06-1.28a.52.52 0 0 1 .51-.54h.57A6.54 6.54 0 0 1 0 151.9c0-.38.14-.57.47-.6l1.11-.05c.29-.02.48.16.5.54zm13.4-14.19l-.05 1.31a.55.55 0 0 1-.56.52l-9-.36c-2.75-.11-3.63.79-3.7 2.85a8.4 8.4 0 0 0 .92 3.72l11.47.46a.57.57 0 0 1 .52.56l-.02 1.34a.53.53 0 0 1-.56.49l-13.87-.56a.53.53 0 0 1-.52-.54L.16 146a.52.52 0 0 1 .56-.49h.51a8.26 8.26 0 0 1-1.08-4.37c.13-3.27 2.22-4.65 5.84-4.5l8.94.35a.55.55 0 0 1 .55.61zm1.77-13.34l-.19 1.25a.54.54 0 0 1-.62.46l-.6-.09a8.26 8.26 0 0 1 .71 4.34c-.34 2.29-1.65 4.24-5 3.75l-.33-.05c-2.91-.43-4.11-2.34-3.41-7.14l.3-2-1.11-.16c-2.27-.33-3.16.33-3.47 2.43a38.3 38.3 0 0 0-.39 4.16v.13c0 .24-.16.48-.5.43l-.95-.14c-.3 0-.43-.26-.43-.64a22.31 22.31 0 0 1 .27-4.24c.55-3.74 2.66-5 5.84-4.5l9.4 1.39a.55.55 0 0 1 .48.62zm-7.44.74l-.3 2c-.48 3.26.12 4.23 2 4.51h.32c1.94.29 2.59-.54 2.82-2.11a7.51 7.51 0 0 0-.54-3.8zm9.84-10.8a13.44 13.44 0 0 1-.28 1.76c-.59 2.44-1.5 3.45-4.42 2.76l-9.26-2.2-.9 2.48a.49.49 0 0 1-.6.39l-.71-.17a.49.49 0 0 1-.36-.62l.62-2.6-2.6-.62a.56.56 0 0 1-.41-.61l.11-1.43a.24.24 0 0 0 0-.09.43.43 0 0 1 .56-.25l2.89.68.71-2.84a.56.56 0 0 1 .66-.4l.9.22a.55.55 0 0 1 .4.65l-.68 2.86 9.25 2.21c1.46.34 1.77 0 2-1l.36-1.48c.09-.37.23-.53.5-.47l.93.22c.23.02.36.19.33.55zm-15.27-9.59L4 105.94a.55.55 0 0 1-.68.36l-2.09-.64a.55.55 0 0 1-.39-.66l.4-1.33a.55.55 0 0 1 .68-.36l2.09.64a.55.55 0 0 1 .37.66zM21 109.76l-.42 1.24a.55.55 0 0 1-.68.36L6.62 107.3a.55.55 0 0 1-.36-.68l.38-1.26a.55.55 0 0 1 .68-.36l13.27 4.08a.54.54 0 0 1 .41.68zm3.31-8.86c-1.48 3.72-4.68 4.63-8.4 3.15l-1.91-.76c-3.73-1.48-5.42-4.35-3.94-8.07s4.69-4.66 8.41-3.18l1.93.77c3.71 1.48 5.39 4.37 3.91 8.09zm-6.73-6.63C15 93.23 13 93.62 12 96s.27 4 2.87 5.08l1.92.76c2.58 1 4.63.67 5.58-1.7s-.26-4.08-2.87-5.14zm15.07-11.02L32 84.4a.54.54 0 0 1-.73.22l-7.91-4.24c-2.43-1.31-3.61-.88-4.59.94a8.68 8.68 0 0 0-.77 3.75l10.14 5.44a.58.58 0 0 1 .22.75l-.64 1.17a.54.54 0 0 1-.72.2L14.74 86a.51.51 0 0 1-.23-.71l.64-1.2a.52.52 0 0 1 .72-.19l.46.24a8.31 8.31 0 0 1 .95-4.42c1.54-2.88 4-3.21 7.24-1.5l7.91 4.24a.56.56 0 0 1 .22.79zM40 72.16l-.71 1a.54.54 0 0 1-.76.14L38 73a8.23 8.23 0 0 1-1.27 4.2c-1.31 1.92-3.34 3.1-6.15 1.17l-.27-.18c-2.43-1.66-2.67-3.91.08-7.91l1.14-1.66-.9-.62c-1.88-1.29-3-1.09-4.18.67a38.21 38.21 0 0 0-2.17 3.56l-.08.11a.42.42 0 0 1-.64.16l-.75-.5c-.24-.17-.28-.43-.11-.77a24.29 24.29 0 0 1 2.1-3.68c2.14-3.15 4.57-3.33 7.2-1.55l7.84 5.36a.55.55 0 0 1 .16.8zm-7-2.57l-1.14 1.66C30 74 30.09 75.11 31.69 76.2l.27.18c1.62 1.11 2.56.64 3.46-.67a7.34 7.34 0 0 0 1.18-3.64zm10.63-1.99l-.89 1.11a.51.51 0 0 1-.72 0L26.83 56.6a.5.5 0 0 1-.11-.7l.89-1.11a.49.49 0 0 1 .7-.06L43.5 66.88a.53.53 0 0 1 .13.72zm11.89-12.47c-3.12 2.92-7.1 3.21-11.23-1.19l-2.41-2.57C37.74 47 38.3 43 41.42 40.08s7.09-3.2 11.22 1.21L55 43.85c4.17 4.41 3.64 8.35.52 11.28zM50.8 43c-3.13-3.34-5.67-3.34-7.86-1.3s-2.36 4.61.77 8l2.4 2.56c3.13 3.33 5.69 3.32 7.89 1.27s2.34-4.59-.79-7.92zm9.2-8.86a7 7 0 0 0-2.29 3.19l6.93 9.06a.57.57 0 0 1-.1.77l-1.07.84a.54.54 0 0 1-.74-.12l-8.43-11a.52.52 0 0 1 .07-.75l1-.78a.52.52 0 0 1 .75.12l.35.45a6.48 6.48 0 0 1 2.26-3.36c.3-.23.55-.22.75 0l.68.88c.18.22.13.46-.16.7zm12.35-8.21l-.72.68a3.86 3.86 0 0 1 2.29 1.87l.12.18c1.61 2.52.94 4.92-2.6 7.18a7.8 7.8 0 0 1-3 1.23 1 1 0 0 0-.08 1.15c.26.39.56.48 1.18.28l4-1.3c2.61-.86 5.18-1.6 6.56.56l.12.18c1.41 2.2.8 4.49-3 6.89s-6.17 2-7.6-.28l-.14-.21a4.39 4.39 0 0 1-.4-3.83h-.21a2.23 2.23 0 0 1-2.19-1.12 2.24 2.24 0 0 1-.12-2.26 4 4 0 0 1-2.76-2l-.08-.13c-1.3-2-1.44-4.79 2.51-7.31l5-3.2a.63.63 0 0 1 .85.17l.37.6c.22.27.12.46-.1.67zm-.44 3.82c-.87-1.37-2.18-2.05-4.66-.48s-2.35 3.15-1.53 4.44l.12.18c.64 1 1.95 2 4.59.36 2.48-1.57 2.49-2.94 1.61-4.31zm6.18 9.3c-.57-.91-1.54-.8-3.94 0l-3 1a3.23 3.23 0 0 0 .37 3.06l.13.21c.82 1.28 2.09 1.6 4.64 0s2.75-2.79 1.94-4zm12.43-7.6l-1.13.55a.54.54 0 0 1-.72-.26l-.27-.53a8.44 8.44 0 0 1-3.18 3.06c-2.08 1-4.43 1.05-5.93-2l-.15-.27c-1.3-2.64-.41-4.73 3.94-6.87l1.81-.89-.48-1c-1-2.06-2.08-2.42-4-1.47a39.19 39.19 0 0 0-3.64 2l-.13.06c-.22.11-.48.15-.63-.17l-.43-.86c-.14-.27 0-.5.29-.71a22.85 22.85 0 0 1 3.63-2.19c3.39-1.67 5.61-.64 7 2.25l4.2 8.54a.55.55 0 0 1-.18.76zm-4.87-5.68l-1.81.88c-3 1.46-3.41 2.51-2.56 4.25l.15.29c.86 1.77 1.93 1.82 3.34 1.12a7.48 7.48 0 0 0 2.82-2.61zm18.35.49l-1.24.45a.54.54 0 0 1-.69-.33L99.05 18c-.94-2.59-2.1-3.07-4-2.36a8.78 8.78 0 0 0-3.1 2.26l3.93 10.81a.55.55 0 0 1-.32.69l-1.26.46a.54.54 0 0 1-.67-.33l-4.79-13.12a.52.52 0 0 1 .3-.68l1.29-.47a.52.52 0 0 1 .67.33l.18.49a8.21 8.21 0 0 1 3.64-2.66c3.08-1.12 5.15.31 6.4 3.71l3.07 8.42a.56.56 0 0 1-.39.71zM105.16 8l-1.34.36a.55.55 0 0 1-.67-.38l-.58-2.11a.54.54 0 0 1 .38-.66l1.34-.37a.55.55 0 0 1 .67.38l.57 2.11a.56.56 0 0 1-.37.67zm4.51 16.78l-1.27.34a.55.55 0 0 1-.67-.38l-3.64-13.4a.54.54 0 0 1 .38-.67l1.26-.34a.56.56 0 0 1 .67.38l3.6 13.36a.54.54 0 0 1-.32.67zm13.02-2.88l-8.09 1.59a1.49 1.49 0 0 1-1.93-1.16l-.1-.51a2.45 2.45 0 0 1 .28-1.85l5.23-10a.59.59 0 0 0 .06-.26c0-.12-.1-.18-.31-.14l-6.5 1.27a.55.55 0 0 1-.65-.43l-.17-.92a.55.55 0 0 1 .43-.64l7.88-1.53c1.1-.22 1.6.21 1.76 1l.13.65a2.15 2.15 0 0 1-.33 1.59l-5.33 10.24a.42.42 0 0 0-.07.33c0 .13.06.2.26.17l7.07-1.38a.54.54 0 0 1 .64.43l.18.91a.55.55 0 0 1-.44.64zm12.76-1.35l-1.26.12a.55.55 0 0 1-.59-.5l-.05-.6a8.24 8.24 0 0 1-4.06 1.71c-2.31.21-4.51-.6-4.82-4v-.33c-.27-2.93 1.3-4.54 6.13-5l2-.18-.1-1.09c-.21-2.28-1.06-3-3.18-2.8a40.76 40.76 0 0 0-4.13.6h-.14c-.24 0-.49 0-.52-.39l-.09-.95c0-.3.14-.48.52-.56a22.74 22.74 0 0 1 4.16-.75c3.77-.34 5.46 1.42 5.76 4.61l.87 9.46a.55.55 0 0 1-.5.65zm-2.51-7l-2 .19c-3.29.3-4.09 1.11-3.91 3v.33c.18 1.95 1.15 2.37 2.71 2.24a7.5 7.5 0 0 0 3.57-1.43zm12.95 6.89a12.91 12.91 0 0 1-1.78.16c-2.51 0-3.71-.6-3.77-3.6l-.14-9.52-2.65-.26a.52.52 0 0 1-.53-.49V6a.49.49 0 0 1 .51-.5h2.65V2.83a.57.57 0 0 1 .48-.55L142 2h.09a.42.42 0 0 1 .41.46v3h2.95a.54.54 0 0 1 .55.53v.93a.55.55 0 0 1-.54.55l-2.95.05.15 9.52c0 1.5.4 1.71 1.5 1.69h1.52c.38 0 .57.1.59.37v1c.1.11-.03.27-.38.34zm4.74.25l-1.31-.09a.55.55 0 0 1-.51-.57l.81-13.87a.55.55 0 0 1 .57-.51l1.31.07a.56.56 0 0 1 .51.59l-.81 13.86a.56.56 0 0 1-.57.52zm1.07-17.35l-1.39-.09a.54.54 0 0 1-.51-.57l.13-2.17a.55.55 0 0 1 .57-.51l1.4.08a.55.55 0 0 1 .51.57l-.13 2.18a.54.54 0 0 1-.58.51zM160 21.8c-4-.54-5.65-3.44-5.11-7.41l.27-2.05c.53-4 2.92-6.32 6.89-5.78s5.7 3.44 5.17 7.44l-.28 2c-.54 4-2.94 6.34-6.94 5.8zm4.81-8.15c.37-2.76-.49-4.66-3-5s-3.85 1.25-4.24 4l-.28 2.05c-.37 2.76.47 4.66 3 5s3.88-1.25 4.26-4zm14.33 11.99l-1.27-.32a.54.54 0 0 1-.39-.67l2.21-8.7c.68-2.67 0-3.71-2-4.24a8.73 8.73 0 0 0-3.83.13L171 23a.56.56 0 0 1-.66.39l-1.3-.33a.54.54 0 0 1-.37-.65l3.43-13.48a.52.52 0 0 1 .64-.4l1.32.34a.51.51 0 0 1 .37.65l-.13.5a8.17 8.17 0 0 1 4.51-.14c3.17.81 4.1 3.15 3.2 6.67l-2.22 8.7a.55.55 0 0 1-.65.39zm23.1-11.44l-1.24-.5c-1.18-.49-1.68-.29-2.25 1.1l-.75 1.82 2.65 1.09a.5.5 0 0 1 .29.66l-.41 1a.47.47 0 0 1-.65.23l-2.65-1.1-4.71 11.5a.57.57 0 0 1-.69.3l-1.24-.51a.56.56 0 0 1-.3-.7L195 17.56l-2.33-1.29a.52.52 0 0 1-.3-.65l.29-.68a.5.5 0 0 1 .66-.26l2.45 1 .75-1.81c1.12-2.7 2.76-3 5-2.05a6.43 6.43 0 0 1 1.35.73c.25.19.41.37.32.61l-.35.83c-.1.3-.33.32-.6.21zm-.67 20.88c-3.55-1.86-4.13-5.15-2.27-8.7l1-1.83c1.86-3.54 4.89-4.94 8.44-3.08s4.15 5.15 2.29 8.7L210 32c-1.83 3.56-4.89 4.94-8.43 3.08zm7.3-6c1.29-2.46 1.12-4.54-1.15-5.74s-4-.15-5.34 2.33l-1 1.84c-1.29 2.46-1.14 4.53 1.13 5.72s4.06.16 5.37-2.32zm12.58 2.4a6.94 6.94 0 0 0-3.77-1.06L211.51 40a.55.55 0 0 1-.75.16l-1.13-.71a.56.56 0 0 1-.14-.75L217 27a.53.53 0 0 1 .74-.18l1.07.69a.52.52 0 0 1 .14.73l-.31.48a6.5 6.5 0 0 1 3.93 1c.32.2.39.45.22.72l-.61.94c-.18.28-.41.31-.73.1zm3.7 19.52a28.2 28.2 0 0 1-3.15-3.22c-.3-.36-.26-.48-.07-.71l.71-.82a.43.43 0 0 1 .64 0l.06.05c.87.91 2.34 2.25 3.29 3.07 2.48 2.14 4 1.71 5.24.27.89-1 .79-2.12-.09-4.9l-1-2.94c-.89-2.8-.94-4.66.49-6.31 2.15-2.5 4.94-2.11 8.08.6a38.78 38.78 0 0 1 3.37 3.34.48.48 0 0 1 0 .66l-.77.88a.42.42 0 0 1-.63 0c-.86-.84-2.25-2.15-3.44-3.18-2.13-1.83-3.43-2.16-4.73-.66-.84 1-.66 2.14.1 4.44l.92 2.78c1.16 3.48 1 5.34-.39 7-1.68 1.92-4.56 3.18-8.63-.35zm11.48 10.8a13.23 13.23 0 0 1-1.33-1.17c-1.76-1.79-2.12-3.1 0-5.19l6.79-6.65-1.64-2.1a.49.49 0 0 1 0-.71l.53-.51a.47.47 0 0 1 .7 0l1.85 1.88 1.91-1.86a.55.55 0 0 1 .73 0l1.15.86.05.05a.44.44 0 0 1 0 .62l-2.13 2.07 2.06 2.1a.56.56 0 0 1 0 .78l-.66.65a.56.56 0 0 1-.78 0l-2.06-2.11-6.8 6.64c-1.06 1-1 1.47-.19 2.25l1.06 1.09c.26.28.32.49.13.68l-.68.67c-.19.16-.41.16-.69-.04zm7.91 9.39l-.79-1a.54.54 0 0 1 .07-.77l.47-.37a8.28 8.28 0 0 1-3.68-2.42c-1.47-1.79-2-4.08.61-6.23l.26-.21c2.29-1.85 4.51-1.46 7.57 2.31l1.28 1.56.85-.69c1.77-1.45 1.88-2.55.54-4.2a39.15 39.15 0 0 0-2.81-3.1.65.65 0 0 0-.09-.11c-.15-.19-.25-.43 0-.65l.74-.61c.23-.19.48-.15.77.12a24.18 24.18 0 0 1 2.95 3c2.38 2.94 1.87 5.33-.62 7.35l-7.38 6a.55.55 0 0 1-.74.02zm4.45-6l-1.28-1.55c-2.07-2.56-3.2-2.77-4.69-1.55l-.26.21c-1.52 1.23-1.34 2.28-.34 3.51a7.43 7.43 0 0 0 3.17 2.16zm3.51 17.88l-.7-1.1a.54.54 0 0 1 .16-.76l7.52-4.86c2.31-1.5 2.51-2.73 1.38-4.47a8.63 8.63 0 0 0-2.86-2.51l-9.65 6.25a.57.57 0 0 1-.76-.16l-.72-1.12a.54.54 0 0 1 .18-.73l11.66-7.55a.53.53 0 0 1 .75.14l.73 1.14a.52.52 0 0 1-.17.73l-.44.28a8.21 8.21 0 0 1 3.41 3c1.78 2.75.86 5.09-2.18 7.06l-7.53 4.87a.55.55 0 0 1-.78-.21zm6.68 12.3a26.26 26.26 0 0 1-2.65-4.28c-1.81-3.63-.28-6.48 3.37-8.31l1.76-.87c3.82-1.91 6.85-1.21 8.61 2.34a18.9 18.9 0 0 1 1.18 3L276 85a.52.52 0 0 1 .69.23l.62 1.25a.49.49 0 0 1-.24.66L260 95.61c-.32.15-.52.17-.82-.24zm10.47-7.25a20.1 20.1 0 0 0-1.26-2.94c-1.19-2.4-3.07-2.43-5.67-1.13l-1.75.87c-2.66 1.32-3.77 2.82-2.56 5.23.4.83 1.07 2 1.56 2.78zm-5.81 19.96l-.44-1.17a.55.55 0 0 1 .32-.7l.56-.21a8.28 8.28 0 0 1-2.71-3.46c-.8-2.17-.6-4.51 2.6-5.71l.31-.11c2.76-1 4.72.06 6.42 4.61l.7 1.9 1-.38c2.14-.8 2.61-1.81 1.86-3.8a41.43 41.43 0 0 0-1.65-3.83l-.05-.13a.42.42 0 0 1 .24-.61l.89-.33c.28-.11.5 0 .68.35a23.15 23.15 0 0 1 1.8 3.83c1.32 3.55.06 5.64-2.95 6.76l-8.91 3.31a.55.55 0 0 1-.67-.32zm6.15-4.26l-.7-1.89c-1.15-3.09-2.14-3.64-4-3l-.3.11c-1.84.69-2 1.73-1.46 3.21a7.44 7.44 0 0 0 2.3 3.07zm9.11 10.07a7.07 7.07 0 0 0-2.11-3.32l-11 3a.56.56 0 0 1-.67-.38l-.36-1.29a.54.54 0 0 1 .39-.64l13.4-3.69a.52.52 0 0 1 .66.35l.34 1.24a.53.53 0 0 1-.38.65l-.55.15a6.5 6.5 0 0 1 2.28 3.35c.11.37 0 .6-.32.69l-1.07.29c-.3.11-.52-.03-.61-.4zm-9.98 15.47a26.55 26.55 0 0 1-1.37-4.84c-.74-4 1.51-6.32 5.53-7.07l1.94-.36c4.2-.78 6.92.71 7.64 4.62a19.65 19.65 0 0 1 .32 3.18l5-.93a.51.51 0 0 1 .6.42l.26 1.36a.49.49 0 0 1-.42.57l-18.74 3.49c-.39.07-.59.03-.76-.44zm12.07-4.1a22 22 0 0 0-.4-3.17c-.49-2.63-2.28-3.18-5.14-2.64l-1.93.35c-2.93.54-4.39 1.68-3.91 4.33.17.91.49 2.21.75 3.11zm-11.75 9.84l-.13-1.31a.54.54 0 0 1 .48-.6l13.83-1.44a.54.54 0 0 1 .6.48l.14 1.31a.55.55 0 0 1-.49.6L270 135.58a.55.55 0 0 1-.56-.48zm17.31-1.76l-.15-1.34a.55.55 0 0 1 .49-.6l2.17-.22a.54.54 0 0 1 .6.48L290 133a.55.55 0 0 1-.48.61l-2.17.22a.55.55 0 0 1-.6-.48zm-16.6 15.12l-.25-8.23a1.47 1.47 0 0 1 1.45-1.71h.52a2.49 2.49 0 0 1 1.79.56l9 6.77a.49.49 0 0 0 .24.11c.11 0 .19-.06.18-.28l-.2-6.63a.55.55 0 0 1 .53-.56h.93a.55.55 0 0 1 .56.52l.25 8c0 1.12-.47 1.54-1.29 1.56h-.66a2.09 2.09 0 0 1-1.51-.58l-9.2-6.9a.44.44 0 0 0-.31-.13c-.13 0-.21 0-.21.22l.23 7.21a.55.55 0 0 1-.53.57h-.93a.55.55 0 0 1-.59-.5zm-.72 13l.09-1.26a.54.54 0 0 1 .58-.5h.59a8.42 8.42 0 0 1-1-4.28c.16-2.32 1.32-4.36 4.72-4.13h.33c2.94.21 4.28 2 3.94 6.87l-.14 2 1.08.07c2.29.16 3.13-.56 3.28-2.69a39.16 39.16 0 0 0 .08-4.17.66.66 0 0 0 0-.14c0-.25.12-.48.47-.46l1 .06c.3 0 .45.22.47.62a23.23 23.23 0 0 1 .06 4.23c-.27 3.78-2.28 5.16-5.49 4.94l-9.48-.66a.56.56 0 0 1-.58-.5zm7.37-1.34l.14-2c.23-3.29-.44-4.21-2.36-4.35h-.33c-2-.14-2.55.76-2.65 2.33a7.51 7.51 0 0 0 .83 3.75zm-8.95 11.61A13.73 13.73 0 0 1 268 170c.38-2.48 1.23-3.57 4.18-3.1l9.4 1.48.71-2.56a.5.5 0 0 1 .56-.44l.72.12a.47.47 0 0 1 .41.59l-.41 2.62 2.64.42a.55.55 0 0 1 .46.56v1.44a.27.27 0 0 0 0 .09.44.44 0 0 1-.52.33l-2.94-.46-.46 2.9a.56.56 0 0 1-.63.46l-.91-.15a.55.55 0 0 1-.46-.63l.46-2.91-9.4-1.48c-1.48-.23-1.76.11-1.93 1.19l-.23 1.5c-.06.38-.2.55-.47.51l-.95-.15c-.23-.09-.38-.25-.38-.6zm-.95 4.61l.27-1.28a.55.55 0 0 1 .65-.41l13.57 3a.54.54 0 0 1 .42.65l-.28 1.28a.56.56 0 0 1-.65.42l-13.57-3a.54.54 0 0 1-.41-.66zm17 3.82l.3-1.36a.55.55 0 0 1 .65-.42l2.13.48a.55.55 0 0 1 .41.65l-.3 1.35a.55.55 0 0 1-.65.42l-2.13-.47a.55.55 0 0 1-.45-.65zm-19.6 5.2c1.17-3.83 4.29-5 8.12-3.83l2 .61c3.82 1.17 5.75 3.89 4.58 7.73s-4.31 5-8.13 3.85l-2-.6c-3.87-1.19-5.75-3.94-4.57-7.76zm7.25 6.07c2.65.81 4.67.27 5.43-2.18s-.6-4-3.28-4.82l-2-.61c-2.66-.82-4.67-.29-5.42 2.15s.58 4 3.27 4.86zm-14.1 12.06l.52-1.19a.54.54 0 0 1 .72-.28l8.21 3.58c2.52 1.11 3.66.6 4.49-1.3a8.76 8.76 0 0 0 .5-3.8l-10.54-4.6a.56.56 0 0 1-.28-.71l.53-1.22a.56.56 0 0 1 .71-.26l12.69 5.56a.51.51 0 0 1 .29.69l-.54 1.25a.51.51 0 0 1-.7.26l-.48-.2a8.12 8.12 0 0 1-.58 4.47c-1.3 3-3.77 3.53-7.08 2.07l-8.21-3.58a.56.56 0 0 1-.25-.74zm-149.81 89.8H85.12v-4.74l8.08-8.17q3.59-3.68 4.69-5.1a11.22 11.22 0 0 0 1.59-2.63 6.7 6.7 0 0 0 .48-2.51 3.66 3.66 0 0 0-1.07-2.89 4.14 4.14 0 0 0-2.85-.95 8.2 8.2 0 0 0-3.63.86 18.76 18.76 0 0 0-3.68 2.45L85 265.22a24.14 24.14 0 0 1 4-2.86 14.47 14.47 0 0 1 3.41-1.29 17.5 17.5 0 0 1 4.14-.45 12.26 12.26 0 0 1 5.33 1.1 8.51 8.51 0 0 1 3.59 3.08 8.19 8.19 0 0 1 1.28 4.54 11.11 11.11 0 0 1-.78 4.17 16 16 0 0 1-2.42 4 59.24 59.24 0 0 1-5.78 5.84l-4.14 3.9v.31h14zm6.43 0l12.09-26.44h-15.88v-5.73h23.11v4.27l-12.18 27.89zM159 277.18q0 8.44-2.76 12.49t-8.51 4.05a9.48 9.48 0 0 1-8.4-4.19q-2.83-4.19-2.83-12.36 0-8.53 2.75-12.57t8.48-4a9.51 9.51 0 0 1 8.43 4.23Q159 269 159 277.18zm-15.75 0q0 5.93 1 8.49a3.55 3.55 0 0 0 3.45 2.57 3.58 3.58 0 0 0 3.44-2.6q1.06-2.6 1.06-8.46t-1.07-8.51a3.57 3.57 0 0 0-6.86 0q-1.05 2.59-1.05 8.51zm41.47 0q0 8.44-2.76 12.49t-8.51 4.05a9.48 9.48 0 0 1-8.4-4.19q-2.83-4.19-2.83-12.36 0-8.53 2.75-12.57t8.48-4a9.51 9.51 0 0 1 8.43 4.23q2.84 4.17 2.84 12.35zm-15.75 0q0 5.93 1 8.49a3.55 3.55 0 0 0 3.45 2.57 3.58 3.58 0 0 0 3.44-2.6q1.06-2.6 1.06-8.46t-1.07-8.51a3.57 3.57 0 0 0-6.86 0q-.99 2.59-.99 8.51zM205 293.29h-6.81v-18.64l.07-3.06.11-3.35q-1.7 1.7-2.36 2.22l-3.7 3-3.28-4.1 10.38-8.26H205z" data-name="Layer 1" fill="#848383"/></g></svg>