<?xml version="1.0" standalone="no"?>
<!DOCTYPE svg PUBLIC "-//W3C//DTD SVG 20010904//EN"
 "http://www.w3.org/TR/2001/REC-SVG-20010904/DTD/svg10.dtd">
<svg version="1.0" xmlns="http://www.w3.org/2000/svg"
 width="551.000000pt" height="700.000000pt" viewBox="0 0 551.000000 700.000000"
 preserveAspectRatio="xMidYMid meet">

<g transform="translate(0.000000,700.000000) scale(0.100000,-0.100000)"
fill="#000000" stroke="none">
<path d="M2670 6829 c-106 -21 -220 -100 -282 -198 -50 -80 -59 -131 -60 -338
0 -200 0 -203 -49 -203 -15 0 -30 -7 -33 -16 -10 -26 -7 -828 4 -844 8 -13 70
-15 437 -18 235 -1 464 1 508 5 l80 8 3 353 2 353 -121 -143 c-281 -331 -472
-548 -489 -553 -13 -4 -72 35 -204 135 -103 78 -184 145 -181 149 2 5 45 45
93 89 l89 81 92 -76 c78 -63 95 -73 106 -62 12 13 155 268 258 461 l47 87 -37
7 c-20 4 -130 4 -245 2 l-208 -6 0 167 c0 195 10 235 73 307 108 123 293 127
409 9 66 -67 73 -90 76 -275 l3 -166 114 -67 c63 -37 117 -67 120 -67 3 0 5
17 5 39 0 37 -1 39 -40 45 l-40 6 0 143 c-1 189 -13 274 -50 352 -84 177 -282
273 -480 234z"/>
<path d="M1374 4950 c-55 -17 -127 -73 -158 -122 -65 -106 -39 -259 55 -328
24 -17 86 -44 141 -61 120 -37 158 -66 158 -118 0 -49 -22 -78 -71 -91 -53
-15 -102 -4 -177 37 -41 23 -69 32 -83 28 -11 -4 -36 -31 -56 -61 -36 -54 -36
-54 -17 -75 46 -51 183 -99 284 -99 186 0 305 105 317 277 4 61 2 74 -24 123
-34 65 -92 104 -205 140 -132 41 -158 60 -158 116 0 38 16 61 51 73 51 18 88
13 162 -21 81 -37 87 -35 135 43 l32 54 -22 19 c-13 10 -48 30 -78 45 -46 21
-72 26 -155 28 -55 1 -114 -2 -131 -7z"/>
<path d="M2128 4941 c-119 -38 -208 -116 -260 -227 -125 -267 17 -580 293
-643 24 -6 81 -11 126 -11 188 0 338 92 416 258 31 64 32 72 32 192 0 121 -1
127 -34 197 -55 117 -151 199 -280 237 -75 22 -219 20 -293 -3z m289 -187 c36
-22 55 -44 78 -89 27 -53 30 -67 30 -155 0 -88 -3 -102 -30 -155 -23 -46 -42
-66 -79 -90 -45 -27 -58 -30 -130 -30 -63 0 -90 5 -121 22 -77 41 -113 100
-124 206 -13 123 17 220 84 274 52 42 92 53 172 49 59 -2 82 -8 120 -32z"/>
<path d="M3098 4941 c-80 -26 -136 -61 -190 -119 -83 -88 -118 -183 -118 -318
0 -187 88 -336 239 -407 55 -26 79 -31 166 -35 122 -5 194 12 273 65 81 55 83
66 26 124 -27 27 -53 49 -58 49 -5 0 -31 -14 -58 -31 -97 -63 -230 -49 -302
31 -55 61 -69 102 -70 205 -1 105 24 175 79 224 78 68 206 80 297 27 64 -37
81 -34 128 25 22 28 40 57 40 64 0 16 -60 57 -125 87 -70 31 -244 36 -327 9z"/>
<path d="M4038 4943 c-87 -29 -162 -115 -182 -209 -8 -37 -1 -42 85 -51 67 -7
80 0 110 60 24 47 73 71 125 61 49 -9 74 -45 74 -108 0 -93 -31 -138 -230
-340 l-180 -184 0 -51 0 -51 310 0 310 0 0 69 c0 96 -8 101 -160 101 -63 0
-130 -4 -148 -9 -17 -5 -32 -7 -32 -4 0 4 53 61 118 127 65 67 132 141 149
166 87 127 82 271 -12 365 -24 25 -61 49 -90 58 -61 21 -184 21 -247 0z"/>
<path d="M4321 3818 c-72 -27 -132 -89 -160 -163 -12 -32 -20 -64 -17 -71 5
-14 123 -30 152 -20 11 3 29 26 42 50 27 50 55 66 117 66 60 0 85 -32 85 -107
0 -90 -31 -136 -231 -339 l-179 -181 0 -57 0 -56 310 0 310 0 0 74 c0 101 -8
106 -155 106 -60 0 -127 -4 -147 -9 -21 -5 -38 -6 -38 -3 0 3 60 66 133 141
165 169 192 216 192 336 0 69 -4 86 -28 127 -33 57 -75 90 -140 112 -67 23
-179 20 -246 -6z"/>
<path d="M860 3750 l0 -80 125 0 125 0 0 -365 0 -366 103 3 102 3 3 363 2 362
125 0 125 0 0 72 0 72 153 -259 152 -260 5 -175 5 -175 103 -3 102 -3 0 173 1
173 158 270 159 270 -105 3 c-85 2 -109 0 -123 -13 -9 -9 -57 -98 -105 -199
l-88 -184 -89 182 c-49 99 -97 189 -105 199 -15 16 -51 17 -475 17 l-458 0 0
-80z"/>
<path d="M2470 3385 l0 -446 103 3 102 3 3 146 3 146 107 5 c78 4 123 12 167
28 143 54 215 205 170 357 -24 79 -64 126 -142 165 l-67 33 -223 3 -223 4 0
-447z m401 270 c79 -41 77 -186 -3 -235 -26 -15 -50 -20 -110 -20 l-78 0 0
141 0 142 80 -6 c44 -4 94 -14 111 -22z"/>
<path d="M3242 3388 l3 -443 283 -3 282 -2 0 85 0 85 -180 0 -180 0 0 100 0
99 138 3 137 3 3 78 3 77 -141 0 -140 0 0 100 0 100 180 0 180 0 0 80 0 80
-285 0 -285 0 2 -442z"/>
<path d="M2590 2605 c-47 -8 -112 -22 -145 -32 l-60 -19 -3 -134 -3 -135 -76
-45 c-199 -118 -350 -320 -410 -549 -21 -79 -26 -119 -26 -226 0 -184 34 -310
127 -470 57 -98 219 -258 313 -310 l73 -40 0 -47 c0 -44 2 -48 24 -48 13 0 26
-6 29 -14 9 -22 -5 -28 -19 -8 -7 9 -16 13 -21 9 -4 -5 0 -13 10 -18 24 -14
22 -49 -3 -49 -17 0 -20 -7 -20 -49 l0 -49 78 -21 c366 -98 742 -18 1042 222
109 88 159 140 227 242 206 305 250 719 113 1074 -191 494 -723 799 -1250 716z
m642 -377 c85 -51 205 -161 262 -242 219 -308 222 -719 8 -1032 -46 -67 -164
-185 -235 -233 -43 -29 -186 -101 -201 -101 -3 0 -6 50 -6 110 0 108 0 110
-20 98 -16 -10 -24 -10 -40 -1 -11 8 -21 9 -25 3 -3 -5 -31 -8 -63 -7 l-57 2
0 35 0 35 57 2 c32 1 60 -2 63 -7 4 -6 13 -5 24 2 20 12 51 5 51 -12 0 -5 -10
-9 -22 -7 -14 1 -23 -3 -23 -12 0 -21 20 -24 39 -6 12 12 16 36 16 94 0 74 -1
77 -29 94 -45 26 -61 72 -61 174 0 98 18 143 65 165 22 10 25 18 25 60 l0 48
-480 0 c-313 0 -480 3 -480 10 0 7 167 10 480 10 l480 0 0 125 0 125 -55 0
-55 0 0 -75 c0 -68 -2 -75 -20 -75 -19 0 -20 7 -20 185 l0 185 75 0 75 0 0
165 0 165 52 -21 c28 -11 82 -38 120 -61z m-442 -258 c27 -14 50 -46 56 -78 6
-28 4 -32 -15 -32 -14 0 -21 6 -21 20 0 36 -44 70 -90 70 -33 0 -48 -6 -71
-29 -28 -28 -29 -34 -29 -115 0 -96 12 -131 51 -152 56 -28 125 -5 136 46 4
21 11 30 24 30 23 0 24 -12 3 -55 -28 -60 -123 -84 -185 -48 -50 30 -72 90
-68 187 4 72 8 87 32 119 16 21 42 41 60 46 32 9 90 5 117 -9z m-443 -165 c35
-94 63 -176 63 -182 0 -7 -6 -13 -14 -13 -8 0 -22 22 -32 50 l-18 51 -80 -3
-79 -3 -14 -40 c-16 -46 -27 -60 -42 -51 -7 4 0 34 18 84 16 42 45 123 66 180
28 78 41 102 54 100 11 -2 36 -58 78 -173z m153 -10 c0 -158 -2 -185 -15 -185
-13 0 -15 27 -15 185 0 158 2 185 15 185 13 0 15 -27 15 -185z m1280 -25 c9
-17 7 -22 -15 -32 -19 -8 -29 -8 -37 0 -13 13 -3 46 12 37 5 -3 10 -1 10 4 0
18 19 12 30 -9z m20 -50 c0 -5 -9 -10 -19 -10 -11 0 -23 -4 -26 -10 -4 -6 5
-10 20 -10 20 0 26 -4 21 -15 -3 -8 -1 -15 3 -15 17 0 20 -30 5 -45 -14 -13
-14 -15 0 -15 9 0 16 -4 16 -10 0 -5 -9 -10 -19 -10 -11 0 -23 -5 -27 -11 -5
-8 1 -10 20 -7 34 7 29 -13 -6 -23 -29 -7 -58 4 -39 15 16 11 13 26 -4 20 -8
-4 -15 -1 -15 5 0 6 12 11 27 11 25 0 25 1 10 18 -22 24 -21 38 1 52 15 10 14
11 -5 7 -13 -3 -23 -1 -23 3 0 5 -3 15 -6 24 -4 11 2 19 17 25 32 13 49 13 49
1z m23 -209 c2 -11 0 -24 -6 -30 -8 -8 -8 -11 1 -11 7 0 12 -11 12 -25 0 -27
-18 -33 -38 -13 -9 9 -12 9 -12 0 0 -7 -4 -12 -10 -12 -5 0 -10 11 -10 25 0
29 7 31 32 8 17 -15 18 -15 18 1 0 9 -11 21 -25 26 -39 15 -32 50 11 50 13 0
24 -8 27 -19z m-1 -107 c14 -13 -6 -44 -28 -44 -13 0 -24 -4 -24 -10 0 -5 11
-10 25 -10 31 0 33 -19 3 -21 -22 -2 -22 -2 -2 -6 16 -3 20 -10 16 -29 -5 -26
-6 -27 -39 -18 -23 6 -33 44 -12 44 8 0 8 4 1 13 -14 18 1 51 29 58 23 7 23 7
-3 8 -16 1 -28 6 -28 11 0 10 53 14 62 4z m-1302 -19 c54 -28 82 -95 40 -95
-13 0 -20 7 -20 18 0 32 -38 57 -85 57 -49 0 -85 -25 -85 -61 0 -25 40 -61 79
-71 44 -10 118 -51 125 -68 34 -88 -49 -160 -155 -134 -26 6 -56 20 -68 33
-27 29 -32 69 -8 74 12 2 17 -3 17 -17 0 -54 121 -84 168 -41 45 42 15 86 -79
119 -76 26 -97 41 -109 77 -29 87 87 157 180 109z m320 -3 c55 -28 75 -72 75
-172 0 -71 -4 -91 -23 -121 -26 -43 -70 -64 -130 -63 -86 2 -131 64 -132 181
0 79 10 116 43 152 41 44 107 53 167 23z m953 -136 c20 -5 27 -12 27 -31 0
-22 -3 -23 -40 -20 -42 4 -55 -9 -20 -20 31 -10 24 -24 -7 -16 -17 5 -27 14
-24 22 3 13 7 36 10 66 0 7 7 11 14 9 6 -3 24 -7 40 -10z m-43 -104 c19 -16
21 -22 11 -40 -14 -27 -32 -28 -61 -4 -19 16 -21 22 -11 40 14 27 32 28 61 4z
m-46 -106 c-2 -19 12 -22 20 -3 3 6 5 3 3 -8 -3 -25 -44 -33 -53 -11 -8 22 3
49 19 43 6 -2 11 -12 11 -21z m-34 -46 c-7 -4 -9 -13 -6 -19 11 -16 24 -13 28
7 2 11 6 13 10 6 4 -6 2 -19 -6 -29 -10 -14 -16 -16 -34 -6 -12 6 -22 17 -22
24 0 18 21 37 33 30 5 -3 4 -9 -3 -13z m3 -67 c-7 -2 -21 1 -33 7 -20 11 -21
10 -11 -9 6 -11 16 -23 21 -26 20 -13 -1 -24 -26 -15 -33 13 -34 13 -34 -5 0
-7 8 -19 18 -24 11 -7 13 -13 6 -18 -6 -5 -13 -16 -17 -26 -9 -24 -51 -19 -55
7 -3 11 4 26 14 33 10 7 15 13 11 13 -4 0 0 11 9 24 10 16 21 23 31 19 11 -4
14 -2 9 5 -4 7 -4 21 -1 32 6 19 8 19 38 3 18 -9 27 -18 20 -20z m-1303 3 c0
-3 -4 -8 -10 -11 -5 -3 -10 -1 -10 4 0 6 5 11 10 11 6 0 10 -2 10 -4z m458
-59 c-14 -40 -27 -56 -49 -66 -23 -10 -34 -10 -42 -2 -8 8 -5 11 13 11 l25 0
-25 13 c-13 7 -27 23 -31 37 -6 23 -7 22 -8 -7 -1 -46 -21 -41 -21 5 l0 37 50
3 50 2 1 -38 c0 -39 1 -38 28 31 20 51 29 27 9 -26z m-490 -10 c3 -37 2 -38
-25 -35 -23 2 -28 8 -29 33 -2 39 3 47 29 43 18 -2 23 -11 25 -41z m50 35 c10
9 18 9 33 0 11 -7 19 -8 19 -2 0 19 47 10 62 -12 12 -18 17 -19 34 -9 17 11
17 12 1 7 -12 -4 -17 -2 -15 6 3 7 13 13 24 13 14 0 20 -8 22 -32 2 -23 7 -30
18 -26 8 3 14 0 14 -5 0 -12 -78 -14 -85 -2 -7 12 -55 -13 -55 -28 0 -7 -4
-10 -10 -7 -5 3 -10 15 -10 26 0 16 -3 17 -19 7 -15 -9 -23 -9 -33 0 -11 9
-17 9 -26 0 -9 -9 -12 -2 -12 32 0 34 3 41 12 32 9 -9 15 -9 26 0z m280 -4
c17 -17 15 -43 -4 -59 -31 -26 -70 25 -44 56 15 18 32 19 48 3z m852 -89 c0
-5 -4 -8 -9 -4 -5 3 -13 0 -17 -6 -4 -8 3 -9 25 -4 35 8 52 -14 31 -40 -14
-17 -40 -20 -40 -5 0 6 7 10 15 10 8 0 15 5 15 10 0 6 -11 8 -26 4 -30 -8 -49
12 -32 33 13 16 38 17 38 2z m-66 -104 c15 -19 25 -35 23 -35 -1 0 -18 16 -37
35 -19 19 -29 35 -23 35 6 0 23 -16 37 -35z m-83 -44 c-11 -7 -9 -10 10 -13
29 -4 29 -19 0 -33 -11 -5 -21 -14 -21 -20 0 -5 -9 1 -20 15 -23 31 -38 20
-21 -17 11 -23 10 -25 -3 -13 -14 11 -16 9 -16 -9 0 -12 -7 -24 -15 -27 -19
-8 -45 13 -45 36 0 23 28 34 46 19 12 -9 14 -7 12 12 -2 16 3 24 17 27 11 2
24 10 28 18 4 8 16 14 25 14 14 0 14 -2 3 -9z m-169 -112 c7 -20 14 -27 20
-21 6 6 6 17 -1 31 -7 12 -8 21 -3 21 5 0 14 -11 20 -25 15 -32 15 -38 2 -30
-5 3 -10 1 -10 -4 0 -19 -28 -12 -35 9 -3 11 -11 20 -16 20 -6 0 -5 -9 2 -22
10 -18 8 -24 -6 -35 -23 -16 -40 -3 -43 31 -1 20 3 26 18 26 12 0 23 7 26 15
9 22 14 19 26 -16z m-92 -44 c-8 -22 -7 -25 13 -26 21 0 21 -1 2 -9 -33 -14
-38 -11 -31 21 5 25 3 30 -10 25 -8 -3 -12 -2 -9 4 3 6 15 10 25 10 17 0 18
-4 10 -25z m-630 -6 c0 -16 -4 -19 -20 -14 -11 3 -20 2 -20 -4 0 -5 8 -12 18
-14 13 -4 11 -5 -5 -6 -18 -1 -23 4 -23 22 0 28 7 37 32 37 12 0 18 -7 18 -21z
m130 11 c0 -5 -4 -10 -10 -10 -5 0 -10 5 -10 10 0 6 5 10 10 10 6 0 10 -4 10
-10z m459 -45 l0 -20 -9 20 c-5 11 -9 29 -9 40 l0 20 9 -20 c5 -11 9 -29 9
-40z m-526 24 c9 -13 17 -16 22 -10 11 19 35 12 36 -11 1 -16 3 -18 6 -6 6 23
30 30 46 13 10 -10 17 -11 25 -3 14 14 42 3 42 -17 0 -8 -9 -15 -21 -15 -11 0
-17 -5 -14 -10 4 -6 11 -8 16 -5 5 4 9 1 9 -4 0 -13 -27 -15 -34 -2 -3 4 -17
6 -32 3 -16 -3 -30 1 -35 9 -8 12 -11 12 -20 -1 -8 -12 -9 -7 -6 18 l4 33 -23
-28 -23 -28 -7 33 c-7 36 -27 38 -32 4 -2 -12 -8 -22 -13 -22 -8 0 -3 43 8 63
8 14 32 7 46 -14z m497 0 c6 -11 9 -25 7 -32 -3 -7 -10 1 -16 16 -13 34 -33
26 -26 -11 5 -26 5 -26 -6 -5 -14 26 -6 53 15 53 9 0 20 -9 26 -21z m-232 -1
c18 -18 15 -68 -4 -75 -37 -14 -70 41 -44 73 15 17 32 18 48 2z m113 -32 c1
-17 3 -24 6 -15 2 9 14 22 26 28 l22 12 -22 -5 c-13 -2 -23 0 -23 6 0 5 10 8
22 6 14 -2 24 -13 29 -30 7 -25 5 -28 -20 -28 -14 0 -34 -9 -44 -20 -10 -12
-23 -18 -29 -14 -8 5 -5 10 7 14 18 6 17 7 -3 12 -24 7 -32 53 -9 61 28 9 37
2 38 -27z m-69 11 c-6 -7 -9 -23 -5 -35 3 -13 1 -22 -6 -22 -6 0 -11 16 -11
35 0 26 4 35 16 35 12 0 14 -3 6 -13z"/>
<path d="M2950 1875 l0 -75 55 0 55 0 0 75 0 75 -55 0 -55 0 0 -75z"/>
<path d="M3020 1308 c-32 -71 -22 -185 20 -223 20 -18 20 -17 20 123 0 153 -7
172 -40 100z"/>
<path d="M2930 860 c0 -11 7 -20 15 -20 8 0 15 9 15 20 0 11 -7 20 -15 20 -8
0 -15 -9 -15 -20z"/>
<path d="M2233 1835 l-30 -85 63 0 c35 0 64 2 64 4 0 10 -53 151 -59 158 -4 4
-21 -30 -38 -77z"/>
<path d="M3775 1639 c-10 -15 3 -25 16 -12 7 7 7 13 1 17 -6 3 -14 1 -17 -5z"/>
<path d="M2734 1360 c-12 -4 -31 -21 -43 -37 -21 -25 -22 -37 -19 -121 3 -88
5 -95 31 -118 32 -27 100 -33 129 -10 46 35 63 165 31 233 -10 22 -29 41 -49
49 -38 16 -50 16 -80 4z"/>
<path d="M3755 1220 c3 -5 10 -10 16 -10 5 0 9 5 9 10 0 6 -7 10 -16 10 -8 0
-12 -4 -9 -10z"/>
<path d="M3700 1126 c0 -15 37 -32 47 -22 3 3 3 12 0 21 -8 19 -47 20 -47 1z"/>
<path d="M3582 845 c4 -4 3 -14 -3 -22 -7 -8 -8 -13 -1 -13 15 0 23 28 9 36
-7 4 -9 4 -5 -1z"/>
<path d="M2745 870 c-7 -12 2 -30 16 -30 5 0 9 9 9 20 0 21 -15 27 -25 10z"/>
<path d="M2390 860 c0 -22 16 -26 40 -10 13 9 13 11 0 20 -24 16 -40 12 -40
-10z"/>
<path d="M2460 861 c0 -12 6 -21 16 -21 9 0 14 7 12 17 -5 25 -28 28 -28 4z"/>
<path d="M2630 860 c0 -11 7 -20 15 -20 8 0 15 9 15 20 0 11 -7 20 -15 20 -8
0 -15 -9 -15 -20z"/>
<path d="M3343 617 c1 -5 6 -8 10 -8 4 1 14 1 22 1 8 0 15 4 15 9 0 5 -11 8
-25 7 -14 0 -24 -5 -22 -9z"/>
<path d="M3250 571 c0 -5 6 -14 14 -20 16 -13 32 2 21 19 -8 12 -35 13 -35 1z"/>
<path d="M3140 523 c0 -17 19 -37 27 -29 4 5 2 11 -5 13 -6 3 -10 9 -6 14 3 5
0 9 -5 9 -6 0 -11 -3 -11 -7z"/>
<path d="M2620 440 c0 -22 1 -23 24 -14 18 7 10 34 -10 34 -8 0 -14 -9 -14
-20z"/>
<path d="M2685 450 c-3 -5 1 -10 10 -10 9 0 13 5 10 10 -3 6 -8 10 -10 10 -2
0 -7 -4 -10 -10z"/>
<path d="M2772 443 c4 -36 33 -39 33 -3 0 16 -6 26 -18 28 -15 3 -18 -2 -15
-25z"/>
<path d="M2882 443 c5 -25 28 -28 28 -4 0 12 -6 21 -16 21 -9 0 -14 -7 -12
-17z"/>
<path d="M2945 440 c-3 -5 1 -10 9 -10 9 0 16 5 16 10 0 6 -4 10 -9 10 -6 0
-13 -4 -16 -10z"/>
<path d="M3717 530 c3 -11 7 -20 9 -20 2 0 4 9 4 20 0 11 -4 20 -9 20 -5 0 -7
-9 -4 -20z"/>
<path d="M3760 530 c6 -11 13 -20 16 -20 2 0 0 9 -6 20 -6 11 -13 20 -16 20
-2 0 0 -9 6 -20z"/>
<path d="M3780 543 c0 -5 5 -15 10 -23 8 -12 10 -11 10 8 0 12 -4 22 -10 22
-5 0 -10 -3 -10 -7z"/>
<path d="M2380 495 c0 -8 7 -15 16 -15 14 0 14 3 4 15 -7 8 -14 15 -16 15 -2
0 -4 -7 -4 -15z"/>
</g>
</svg>
