<?xml version="1.0" ?><svg id="Layer_1" style="enable-background:new 0 0 256 256;" version="1.1" viewBox="0 0 256 256" xml:space="preserve" xmlns="http://www.w3.org/2000/svg" xmlns:xlink="http://www.w3.org/1999/xlink"><g><path d="M100.3,76.9L79.5,96.6L71.3,88c-1.9-2-5.1-2-7-0.1c-2,1.9-2,5.1-0.1,7L75.8,107c1,1,2.3,1.5,3.6,1.5c1.2,0,2.5-0.5,3.4-1.4   l24.3-23.1c2-1.9,2.1-5,0.2-7C105.4,75.1,102.3,75,100.3,76.9z"/><path d="M143.3,145.6c-0.2-0.4-0.5-0.8-0.8-1.2l-2-2.9c-0.9-1.4-1.9-2.7-2.8-4.1c4.2-4.8,7.7-10.1,10.4-15.8   c0.8,0.2,1.7,0.3,2.5,0.5c2.2,0.4,4.3,0.8,6.5,1.2c0.4,0.1,0.8,0.1,1.1,0.2c2.2,0.2,4.3-1.2,5.1-3.3c1.5-4.2,2.7-8.6,3.5-13   c0.8-4.4,1.3-9,1.4-13.4c0.1-2.3-1.5-4.4-3.8-5c-0.1,0-0.4-0.1-0.5-0.1l-2.9-0.6c-2.2-0.4-4.3-0.8-6.4-1.2   c-0.5-6.2-1.7-12.4-3.9-18.3c2.7-1.8,5.3-3.7,8-5.4c2.1-1.4,2.8-4,1.8-6.3c-3.8-8.2-9-15.6-15.2-22.2c-1.7-1.8-4.4-2-6.4-0.6   c-1.5,1-2.9,2-4.4,3c-1.2,0.8-2.4,1.6-3.6,2.5c-4.8-4.1-10-7.5-15.7-10.2c0.1-0.5,0.2-1.1,0.3-1.6l0.2-1.4c0-0.1,0.1-0.3,0.1-0.5   l0.3-1.8c0.2-1.4,0.5-2.7,0.8-4.2c0.5-2.4-0.9-4.9-3.2-5.7c-4.1-1.5-8.4-2.6-12.8-3.4c-4.3-0.8-8.7-1.3-13.1-1.4   c-2.5-0.1-4.7,1.8-5.1,4.3c-0.2,1.4-0.5,2.7-0.7,4.1l-0.3,1.8c0,0.2-0.1,0.3-0.1,0.5l-0.3,1.4c-0.1,0.5-0.2,1-0.3,1.6   c-6.2,0.4-12.4,1.7-18.3,3.8c-0.8-1.2-1.6-2.4-2.5-3.6c-1-1.5-2-2.9-3-4.4c-1.4-2-4-2.8-6.2-1.7c-8.2,3.8-15.7,8.9-22.2,15.2   c-1.8,1.7-2.1,4.5-0.6,6.5c1.8,2.6,3.6,5.2,5.3,7.8l0.1,0.2c-4.1,4.7-7.5,10-10.2,15.6c-2.1-0.4-4.2-0.8-6.3-1.2l-3-0.6   c-0.1,0-0.4-0.1-0.4-0.1c-2.3-0.3-4.6,1-5.4,3.2c-1.5,4.2-2.7,8.6-3.5,13c-0.8,4.4-1.3,8.9-1.4,13.4c-0.1,2.2,1.4,4.2,3.5,4.9   c0.4,0.1,0.7,0.2,1.1,0.2c2.1,0.4,4.3,0.8,6.4,1.2c0.9,0.2,1.7,0.3,2.6,0.5c0.5,6.3,1.8,12.5,3.9,18.5c-1.4,1-2.8,1.9-4.2,2.9   l-2.8,1.9c-0.5,0.3-0.9,0.6-1.2,0.9c-1.9,1.4-2.5,4-1.5,6.1c3.8,8.1,8.9,15.5,15.1,21.9c1.7,1.7,4.3,2,6.3,0.7   c0.1,0,0.4-0.3,0.4-0.3c1.7-1.2,3.5-2.5,5.3-3.7c0.8-0.6,1.6-1.1,2.4-1.6c4.8,4.1,10,7.5,15.7,10.2c-0.3,1.4-0.5,2.8-0.8,4.2   c-0.3,1.7-0.6,3.4-1,5.2c0,0.1-0.1,0.4-0.1,0.4c-0.4,2.4,1,4.6,3.2,5.4c4.1,1.5,8.4,2.6,12.7,3.4c4.3,0.8,8.8,1.3,13.1,1.4   c0,0,0.1,0,0.1,0c2.3,0,4.3-1.6,4.8-3.8c0-0.1,0.1-0.5,0.1-0.6c0.3-1.7,0.6-3.4,0.9-5.1c0.3-1.4,0.5-2.8,0.8-4.1   c6.3-0.4,12.4-1.7,18.4-3.8c0.6,0.8,1.1,1.6,1.7,2.4c1.2,1.8,2.4,3.5,3.6,5.3c0.1,0.1,0.3,0.4,0.4,0.5c1.4,1.9,4,2.5,6.1,1.5   c8.1-3.8,15.5-8.8,22-15C144.2,150.2,144.6,147.6,143.3,145.6z M120.1,155.9c-0.5-0.7-0.9-1.4-1.4-2.1c-1.1-1.6-2.2-3.3-3.3-4.9   c-0.4-0.6-0.8-1.1-1.2-1.5c-1.4-1.4-3.6-1.8-5.4-1c-7.1,3-14.7,4.6-22.4,4.7c-1.9,0-3.7,1.2-4.5,2.9c-0.3,0.7-0.5,1.5-0.7,2.3   c-0.4,2.3-0.8,4.5-1.2,6.8c-0.1,0.4-0.2,0.8-0.2,1.2c-2.4-0.2-4.9-0.5-7.3-1c-2.4-0.5-4.8-1-7.2-1.7c0.1-0.4,0.1-0.8,0.2-1.1   c0.4-2.3,0.8-4.6,1.3-6.8c0.2-0.9,0.3-1.7,0.2-2.4c-0.1-1.9-1.3-3.6-3.1-4.3c-7.2-2.9-13.7-7.1-19.2-12.5c-1.4-1.4-3.6-1.8-5.4-1   c-0.6,0.2-1.2,0.6-1.7,1c-1.6,1.1-3.2,2.2-4.9,3.4c-0.7,0.5-1.4,0.9-2.1,1.4c-3.3-3.8-6.1-8-8.5-12.4l0.2-0.2   c2.2-1.5,4.4-3.1,6.7-4.6c0.6-0.4,1.1-0.8,1.5-1.2c1.4-1.4,1.8-3.6,1-5.5c-3.1-7.2-4.7-14.8-4.8-22.6c0-2.2-1.5-4.1-3.6-4.7   c-0.3-0.1-0.6-0.1-0.9-0.2c-2-0.4-4-0.7-6-1.1c-0.9-0.2-1.8-0.3-2.7-0.5c0.2-2.5,0.5-5,1-7.5c0.5-2.5,1.1-5,1.8-7.5   c2.6,0.5,5.2,1,7.8,1.5c1,0.2,1.9,0.3,2.8,0.2c1.9-0.1,3.5-1.3,4.2-3.1c2.9-7.1,7-13.5,12.4-19c1.4-1.4,1.8-3.5,1.1-5.4   c-0.4-0.9-0.9-1.7-1.6-2.7L41.7,41c-1-1.4-1.9-2.9-2.9-4.3c3.9-3.3,8.1-6.2,12.6-8.6c0.2,0.3,0.4,0.6,0.6,0.9   c1.3,1.9,2.6,3.8,3.8,5.7c0.4,0.7,1.1,1.6,2.3,2.4c1.4,1,3.2,1.1,4.8,0.5c7.1-3,14.6-4.5,22.3-4.6c1.9,0,3.6-1.1,4.5-2.8   c0.3-0.7,0.5-1.4,0.7-2.3c0.2-1.5,0.5-2.9,0.8-4.4l0.4-1.9c0-0.2,0.1-0.3,0.1-0.5l0.2-1.3c0,0,0-0.1,0-0.1c2.4,0.2,4.9,0.5,7.3,1   c2.4,0.5,4.8,1,7.2,1.7c0,0,0,0.1,0,0.1l-0.2,1.3c0,0.1-0.1,0.3-0.1,0.5l-0.4,1.9c-0.3,1.5-0.5,2.9-0.8,4.4   c-0.2,0.8-0.2,1.6-0.2,2.3c0.1,1.9,1.4,3.6,3.1,4.3c7.1,2.8,13.5,7,19.1,12.3c1.2,1.2,3,1.7,4.6,1.3c1-0.2,2-0.7,3-1.4   c1.9-1.3,3.8-2.6,5.7-3.9c0.3-0.2,0.6-0.4,0.9-0.6c3.3,3.9,6.2,8.1,8.6,12.6c-1.6,1.1-3.2,2.2-4.8,3.3l-1.3,0.9   c-1,0.7-1.8,1.2-2.5,2c-1.3,1.4-1.7,3.5-0.9,5.3c3,7.1,4.6,14.6,4.7,22.2c0,1.9,1.1,3.6,2.9,4.4c0.8,0.4,1.6,0.6,2.6,0.8   c2.6,0.4,5.2,0.9,7.8,1.4c-0.2,2.5-0.5,5.1-1,7.6c-0.5,2.5-1.1,5-1.8,7.4c-0.9-0.2-1.9-0.4-2.8-0.5c-2-0.4-3.9-0.7-5.9-1.1   c-0.3-0.1-0.6-0.1-0.9-0.1c-2.2-0.2-4.3,1-5.1,3.1c-2.9,7.2-7.2,13.7-12.6,19.3c-1.4,1.4-1.8,3.6-1,5.5c0.2,0.5,0.5,1.1,1,1.7   c1.5,2.1,3,4.3,4.5,6.5l0.2,0.4C128.7,150.7,124.5,153.5,120.1,155.9z"/><path d="M129.1,100.2c0.4-2.4,0.7-4.8,0.8-7.2c0.1-6.7-1.3-13.6-4.2-19.7c-2.1-4.4-4.8-8.4-8.1-11.8c-4.7-4.9-10.5-8.7-16.9-10.9   c-2.2-0.8-4.5-1.4-6.8-1.8c-2.3-0.4-4.7-0.7-7-0.7c-6.7-0.2-13.6,1.2-19.7,4.1c-4.4,2-8.4,4.8-11.9,8.1c-4.9,4.7-8.7,10.5-11,16.8   c-0.8,2.2-1.4,4.6-1.9,7c-0.4,2.4-0.7,4.8-0.8,7.1c-0.2,6.8,1.3,13.7,4.2,19.8c2,4.3,4.8,8.3,8.1,11.7c4.7,4.9,10.5,8.7,16.9,11   c2.2,0.8,4.5,1.4,6.8,1.8c2.3,0.4,4.7,0.7,7,0.7c0.4,0,0.8,0,1.1,0c6.4,0,12.8-1.4,18.6-4.1c4.3-2,8.3-4.7,11.8-8   c5-4.7,8.8-10.6,11.1-17C128,104.9,128.6,102.5,129.1,100.2z M119.3,98.3C119.3,98.3,119.3,98.3,119.3,98.3   c-0.3,1.8-0.8,3.7-1.5,5.4c-1.8,4.9-4.8,9.5-8.6,13.1c-2.7,2.6-5.8,4.6-9.1,6.2c-4.7,2.2-10,3.3-15.3,3.2c-1.8,0-3.6-0.2-5.4-0.6   c-1.8-0.3-3.6-0.8-5.3-1.4c-4.9-1.8-9.4-4.7-13.1-8.5c-2.6-2.7-4.7-5.7-6.3-9.1c-2.3-4.8-3.4-10.1-3.3-15.3c0-1.8,0.2-3.7,0.6-5.6   c0.3-1.8,0.8-3.7,1.5-5.4c1.8-4.9,4.7-9.4,8.5-13c2.7-2.6,5.8-4.7,9.2-6.3c4.5-2.1,9.4-3.2,14.4-3.2c0.3,0,0.6,0,0.9,0   c1.8,0,3.6,0.2,5.4,0.6c1.8,0.3,3.6,0.8,5.3,1.4c4.9,1.8,9.4,4.7,13.1,8.5c2.6,2.7,4.7,5.8,6.3,9.2c2.2,4.7,3.3,10,3.2,15.2   C119.8,94.6,119.6,96.5,119.3,98.3z"/><path d="M249.2,186.1c-0.1,0-0.4-0.1-0.6-0.1c0,0,0,0,0,0l-1.9-0.4c-1-0.2-2.1-0.4-3.1-0.6c-0.3-3.4-1.1-6.8-2.1-10.1   c1.4-1,2.8-1.9,4.3-2.9c2.1-1.4,2.8-4,1.8-6.3c-2.6-5.6-6.1-10.7-10.5-15.2c-1.7-1.8-4.4-2-6.5-0.6c-1,0.7-1.9,1.3-2.9,2   c-0.5,0.3-0.9,0.6-1.4,0.9c-2.7-2.2-5.6-4.1-8.7-5.6l0.1-0.7c0-0.1,0.1-0.2,0.1-0.4l0.2-1.3c0.2-0.9,0.3-1.7,0.5-2.8   c0.5-2.4-0.9-4.8-3.2-5.7c-2.8-1-5.8-1.8-8.7-2.4c-3-0.6-6-0.9-9-1c-2.6,0-4.7,1.8-5.1,4.3c-0.1,0.9-0.3,1.7-0.5,2.6l-0.2,1.3   c0,0.1,0,0.2-0.1,0.4l-0.1,0.7c-3.4,0.3-6.8,1-10.1,2.1c-0.3-0.5-0.6-0.9-0.9-1.4c-0.7-1-1.3-1.9-2-2.9c-1.4-2-4-2.8-6.2-1.7   c-5.6,2.6-10.8,6.1-15.2,10.4c-1.8,1.7-2.1,4.5-0.6,6.5c1,1.4,2,2.8,2.9,4.2c-2.2,2.7-4.1,5.6-5.7,8.6c-1-0.2-2.1-0.4-3.1-0.6   l-1.8-0.3c-0.1,0-0.4-0.1-0.6-0.1c-2.3-0.3-4.6,1-5.3,3.3c-1,2.9-1.9,5.9-2.4,8.9c-0.6,3-0.9,6.1-1,9.2c-0.1,2.2,1.4,4.2,3.5,4.9   c0.2,0.1,0.7,0.2,0.9,0.2c1.4,0.2,2.8,0.5,4.3,0.8c0.2,0,0.3,0.1,0.5,0.1c0.3,3.5,1.1,6.9,2.2,10.2c-0.6,0.4-1.2,0.8-1.7,1.2   l-2.7,1.9c-1.9,1.4-2.5,4-1.5,6.1c2.6,5.6,6.1,10.6,10.4,15.1c1.7,1.7,4.3,2,6.3,0.7c0.1,0,0.3-0.2,0.4-0.3   c1.1-0.8,2.3-1.6,3.5-2.4c0.2-0.1,0.4-0.3,0.6-0.4c2.7,2.2,5.6,4.1,8.7,5.7c-0.1,0.5-0.2,1-0.3,1.5c-0.2,1.1-0.4,2.2-0.6,3.4   c0,0.1-0.1,0.4-0.1,0.4c-0.3,2.3,1,4.6,3.3,5.4c2.8,1,5.7,1.8,8.7,2.4c3,0.6,6,0.9,9,1c0,0,0.1,0,0.1,0c2.2,0,4.1-1.4,4.8-3.5   c0.1-0.2,0.1-0.6,0.2-0.8c0.2-1.1,0.4-2.2,0.6-3.3c0.1-0.5,0.2-1,0.3-1.6c3.5-0.3,6.9-1,10.2-2.1c0.1,0.2,0.2,0.4,0.4,0.5   c0.8,1.2,1.6,2.3,2.4,3.6c0.1,0.1,0.2,0.4,0.3,0.4c1.4,1.9,3.9,2.5,6.1,1.5c5.6-2.6,10.7-6.1,15.1-10.3c1.7-1.6,2-4.2,0.8-6.2   c-0.2-0.3-0.4-0.6-0.6-0.9l-1.3-1.9c-0.4-0.6-0.8-1.1-1.2-1.7c2.2-2.7,4.2-5.6,5.7-8.8c0.1,0,0.3,0,0.4,0.1   c1.5,0.3,2.9,0.5,4.3,0.8c0.1,0,0.6,0.1,0.8,0.1c2.3,0.2,4.4-1.1,5.2-3.3c1-2.9,1.9-5.9,2.4-8.9c0.6-3,0.9-6.1,1-9.2   C252.8,188.8,251.3,186.8,249.2,186.1z M242,198.4c-0.2,1.1-0.5,2.2-0.7,3.3c-0.1,0-0.3-0.1-0.4-0.1c-1.3-0.2-2.6-0.5-3.9-0.7   c-0.2,0-0.6-0.1-0.8-0.1c-2.2-0.2-4.2,1.1-5.1,3.1c-1.9,4.6-4.6,8.8-8.1,12.3c-1.4,1.5-1.8,3.6-1,5.5c0.2,0.5,0.5,0.9,0.8,1.4   c0.8,1.1,1.5,2.2,2.3,3.3c-1.8,1.4-3.6,2.6-5.5,3.8c0-0.1-0.1-0.1-0.1-0.2c-0.7-1.1-1.5-2.1-2.2-3.2c-0.3-0.5-0.7-0.9-1.1-1.3   c-1.4-1.4-3.5-1.7-5.4-0.9c-4.6,1.9-9.4,2.9-14.3,3c-1.9,0-3.7,1.1-4.5,2.9c-0.3,0.6-0.5,1.3-0.6,2c-0.2,1.3-0.4,2.5-0.7,3.8   c-1.1-0.1-2.1-0.3-3.2-0.5c-1.1-0.2-2.1-0.4-3.2-0.7c0.2-1.3,0.5-2.5,0.7-3.7c0.2-0.7,0.2-1.4,0.2-2.1c-0.1-1.9-1.3-3.6-3.1-4.4   c-4.6-1.8-8.7-4.5-12.3-7.9c-1.5-1.4-3.6-1.8-5.5-1c-0.4,0.2-0.9,0.4-1.4,0.8c-1.1,0.8-2.2,1.5-3.2,2.2c0,0-0.1,0.1-0.1,0.1   c-1.4-1.7-2.7-3.6-3.8-5.5c1.1-0.8,2.2-1.5,3.3-2.2c0.5-0.3,0.9-0.6,1.2-1c1.4-1.4,1.9-3.6,1.1-5.5c-2-4.6-3-9.4-3.1-14.4   c0-2.1-1.4-4-3.5-4.7c-0.2-0.1-0.7-0.2-0.9-0.2c-1.3-0.2-2.7-0.5-4-0.7c-0.1,0-0.2,0-0.3-0.1c0.1-1.1,0.3-2.2,0.5-3.4   c0.2-1.1,0.5-2.3,0.8-3.4c1.2,0.2,2.4,0.5,3.6,0.7c0.8,0.2,1.6,0.2,2.3,0.2c1.9-0.1,3.5-1.4,4.2-3.1c1.8-4.5,4.5-8.6,7.9-12.1   c1.4-1.4,1.8-3.5,1.1-5.3c-0.3-0.8-0.7-1.4-1.2-2.2l-0.8-1.1c-0.4-0.5-0.7-1.1-1.1-1.6c1.8-1.4,3.7-2.7,5.6-3.9   c0.7,1,1.4,2.1,2.1,3.1c0.4,0.5,1,1.3,1.9,2c1.4,1,3.2,1.2,4.8,0.5c4.5-1.9,9.3-2.9,14.2-2.9c1.9,0,3.6-1.1,4.4-2.8   c0.3-0.6,0.5-1.2,0.6-2c0.1-0.9,0.3-1.9,0.5-2.8l0.2-1c1.1,0.1,2.1,0.3,3.2,0.5c1.1,0.2,2.1,0.4,3.2,0.7l-0.2,1.1   c-0.2,0.9-0.3,1.9-0.5,2.8c-0.2,0.7-0.2,1.4-0.2,2.1c0.2,1.9,1.4,3.5,3.1,4.2c4.5,1.8,8.6,4.5,12.2,7.9c1.2,1.2,3,1.7,4.6,1.3   c1.2-0.3,2-0.8,2.6-1.2c1-0.7,2-1.4,3.1-2.1c1.4,1.8,2.7,3.7,3.9,5.6c-0.5,0.4-1.1,0.7-1.6,1.1l-1.2,0.8c-0.7,0.5-1.3,0.9-1.9,1.6   c-1.3,1.4-1.7,3.5-0.9,5.3c1.9,4.5,2.9,9.3,3,14.2c0,1.9,1.1,3.6,2.8,4.4c0.7,0.3,1.4,0.5,2.2,0.7c1.2,0.2,2.4,0.4,3.6,0.6   C242.4,196.1,242.2,197.3,242,198.4z"/></g></svg>